<mxfile host="drawio-plugin" modified="2022-12-06T06:21:57.893Z" agent="5.0 (Windows NT 6.2; Win64; x64) AppleWebKit/537.36 (KHTML, like Gecko) Chrome/97.0.4692.45 Safari/537.36" etag="ddc1OH7tF81AOxQHiCoT" version="20.5.3" type="embed"><diagram id="C5RBs43oDa-KdzZeNtuy" name="Page-1"><mxGraphModel dx="960" dy="660" grid="1" gridSize="10" guides="1" tooltips="1" connect="1" arrows="1" fold="1" page="1" pageScale="1" pageWidth="2000" pageHeight="2520" math="0" shadow="0"><root><mxCell id="WIyWlLk6GJQsqaUBKTNV-0"/><mxCell id="WIyWlLk6GJQsqaUBKTNV-1" parent="WIyWlLk6GJQsqaUBKTNV-0"/><mxCell id="zkfFHV4jXpPFQw0GAbJ--0" value="&lt;&lt;data class&gt;&gt;&#10;User" style="swimlane;fontStyle=0;align=center;verticalAlign=top;childLayout=stackLayout;horizontal=1;startSize=34;horizontalStack=0;resizeParent=1;resizeLast=0;collapsible=1;marginBottom=0;rounded=0;shadow=0;strokeWidth=1;" parent="WIyWlLk6GJQsqaUBKTNV-1" vertex="1"><mxGeometry x="500" y="506" width="200" height="252" as="geometry"><mxRectangle x="230" y="140" width="160" height="26" as="alternateBounds"/></mxGeometry></mxCell><mxCell id="zkfFHV4jXpPFQw0GAbJ--1" value="+ firstName: String { readOnly }" style="text;align=left;verticalAlign=top;spacingLeft=4;spacingRight=4;overflow=hidden;rotatable=0;points=[[0,0.5],[1,0.5]];portConstraint=eastwest;" parent="zkfFHV4jXpPFQw0GAbJ--0" vertex="1"><mxGeometry y="34" width="200" height="26" as="geometry"/></mxCell><mxCell id="zkfFHV4jXpPFQw0GAbJ--2" value="+ lastName: String { readOnly }" style="text;align=left;verticalAlign=top;spacingLeft=4;spacingRight=4;overflow=hidden;rotatable=0;points=[[0,0.5],[1,0.5]];portConstraint=eastwest;rounded=0;shadow=0;html=0;" parent="zkfFHV4jXpPFQw0GAbJ--0" vertex="1"><mxGeometry y="60" width="200" height="26" as="geometry"/></mxCell><mxCell id="zkfFHV4jXpPFQw0GAbJ--3" value="+ email: String { readOnly }" style="text;align=left;verticalAlign=top;spacingLeft=4;spacingRight=4;overflow=hidden;rotatable=0;points=[[0,0.5],[1,0.5]];portConstraint=eastwest;rounded=0;shadow=0;html=0;" parent="zkfFHV4jXpPFQw0GAbJ--0" vertex="1"><mxGeometry y="86" width="200" height="26" as="geometry"/></mxCell><mxCell id="NYYMoiH2fDYC1uSWcf2y-0" value="+ username: String { readOnly }" style="text;align=left;verticalAlign=top;spacingLeft=4;spacingRight=4;overflow=hidden;rotatable=0;points=[[0,0.5],[1,0.5]];portConstraint=eastwest;rounded=0;shadow=0;html=0;" parent="zkfFHV4jXpPFQw0GAbJ--0" vertex="1"><mxGeometry y="112" width="200" height="26" as="geometry"/></mxCell><mxCell id="zkfFHV4jXpPFQw0GAbJ--4" value="" style="line;html=1;strokeWidth=1;align=left;verticalAlign=middle;spacingTop=-1;spacingLeft=3;spacingRight=3;rotatable=0;labelPosition=right;points=[];portConstraint=eastwest;" parent="zkfFHV4jXpPFQw0GAbJ--0" vertex="1"><mxGeometry y="138" width="200" height="8" as="geometry"/></mxCell><mxCell id="NYYMoiH2fDYC1uSWcf2y-163" value="+ User(&#10;        firstName: String, &#10;        lastName: String,&#10;        email: String,&#10;        username: String,&#10;    )" style="text;align=left;verticalAlign=top;spacingLeft=4;spacingRight=4;overflow=hidden;rotatable=0;points=[[0,0.5],[1,0.5]];portConstraint=eastwest;rounded=0;shadow=0;html=0;" parent="zkfFHV4jXpPFQw0GAbJ--0" vertex="1"><mxGeometry y="146" width="200" height="106" as="geometry"/></mxCell><mxCell id="zkfFHV4jXpPFQw0GAbJ--17" value="UserRepository" style="swimlane;fontStyle=0;align=center;verticalAlign=top;childLayout=stackLayout;horizontal=1;startSize=26;horizontalStack=0;resizeParent=1;resizeLast=0;collapsible=1;marginBottom=0;rounded=0;shadow=0;strokeWidth=1;" parent="WIyWlLk6GJQsqaUBKTNV-1" vertex="1"><mxGeometry x="40" y="10" width="240" height="200" as="geometry"><mxRectangle x="550" y="140" width="160" height="26" as="alternateBounds"/></mxGeometry></mxCell><mxCell id="zkfFHV4jXpPFQw0GAbJ--18" value="-database: Database" style="text;align=left;verticalAlign=top;spacingLeft=4;spacingRight=4;overflow=hidden;rotatable=0;points=[[0,0.5],[1,0.5]];portConstraint=eastwest;" parent="zkfFHV4jXpPFQw0GAbJ--17" vertex="1"><mxGeometry y="26" width="240" height="26" as="geometry"/></mxCell><mxCell id="NYYMoiH2fDYC1uSWcf2y-206" value="-client: HttpClient" style="text;align=left;verticalAlign=top;spacingLeft=4;spacingRight=4;overflow=hidden;rotatable=0;points=[[0,0.5],[1,0.5]];portConstraint=eastwest;" parent="zkfFHV4jXpPFQw0GAbJ--17" vertex="1"><mxGeometry y="52" width="240" height="26" as="geometry"/></mxCell><mxCell id="naM0Vag8xCBrJSv8B079-10" value="-secureDataStore: SecureDataStore" style="text;align=left;verticalAlign=top;spacingLeft=4;spacingRight=4;overflow=hidden;rotatable=0;points=[[0,0.5],[1,0.5]];portConstraint=eastwest;" parent="zkfFHV4jXpPFQw0GAbJ--17" vertex="1"><mxGeometry y="78" width="240" height="26" as="geometry"/></mxCell><mxCell id="zkfFHV4jXpPFQw0GAbJ--23" value="" style="line;html=1;strokeWidth=1;align=left;verticalAlign=middle;spacingTop=-1;spacingLeft=3;spacingRight=3;rotatable=0;labelPosition=right;points=[];portConstraint=eastwest;" parent="zkfFHV4jXpPFQw0GAbJ--17" vertex="1"><mxGeometry y="104" width="240" height="8" as="geometry"/></mxCell><mxCell id="NYYMoiH2fDYC1uSWcf2y-207" value="+UserRespository(&#10;        database: Database,&#10;        client: HttpClient,&#10;        secureDataStore: SecureDataStore&#10;    )" style="text;align=left;verticalAlign=top;spacingLeft=4;spacingRight=4;overflow=hidden;rotatable=0;points=[[0,0.5],[1,0.5]];portConstraint=eastwest;" parent="zkfFHV4jXpPFQw0GAbJ--17" vertex="1"><mxGeometry y="112" width="240" height="88" as="geometry"/></mxCell><mxCell id="NYYMoiH2fDYC1uSWcf2y-2" value="&lt;&lt;interface&gt;&gt;&#10;IUserRepository" style="swimlane;fontStyle=0;align=center;verticalAlign=top;childLayout=stackLayout;horizontal=1;startSize=40;horizontalStack=0;resizeParent=1;resizeLast=0;collapsible=1;marginBottom=0;rounded=0;shadow=0;strokeWidth=1;" parent="WIyWlLk6GJQsqaUBKTNV-1" vertex="1"><mxGeometry x="280" y="254" width="420" height="210" as="geometry"><mxRectangle x="550" y="140" width="160" height="26" as="alternateBounds"/></mxGeometry></mxCell><mxCell id="NYYMoiH2fDYC1uSWcf2y-8" value="" style="line;html=1;strokeWidth=1;align=left;verticalAlign=middle;spacingTop=-1;spacingLeft=3;spacingRight=3;rotatable=0;labelPosition=right;points=[];portConstraint=eastwest;" parent="NYYMoiH2fDYC1uSWcf2y-2" vertex="1"><mxGeometry y="40" width="420" height="8" as="geometry"/></mxCell><mxCell id="NYYMoiH2fDYC1uSWcf2y-9" value="+ { suspend } login(loginRequestData: LoginDTO): Result&lt;String&gt;" style="text;align=left;verticalAlign=top;spacingLeft=4;spacingRight=4;overflow=hidden;rotatable=0;points=[[0,0.5],[1,0.5]];portConstraint=eastwest;" parent="NYYMoiH2fDYC1uSWcf2y-2" vertex="1"><mxGeometry y="48" width="420" height="26" as="geometry"/></mxCell><mxCell id="NYYMoiH2fDYC1uSWcf2y-10" value="+ { suspend } register(registerRequestData: RegisterDTO): Result&lt;String&gt;" style="text;align=left;verticalAlign=top;spacingLeft=4;spacingRight=4;overflow=hidden;rotatable=0;points=[[0,0.5],[1,0.5]];portConstraint=eastwest;" parent="NYYMoiH2fDYC1uSWcf2y-2" vertex="1"><mxGeometry y="74" width="420" height="26" as="geometry"/></mxCell><mxCell id="NYYMoiH2fDYC1uSWcf2y-11" value="+ { suspend } getUserByEmail(email: String): Result&lt;User&gt;" style="text;align=left;verticalAlign=top;spacingLeft=4;spacingRight=4;overflow=hidden;rotatable=0;points=[[0,0.5],[1,0.5]];portConstraint=eastwest;" parent="NYYMoiH2fDYC1uSWcf2y-2" vertex="1"><mxGeometry y="100" width="420" height="26" as="geometry"/></mxCell><mxCell id="NYYMoiH2fDYC1uSWcf2y-12" value="+ { suspend } getUsers(): Result&lt;List&lt;User&gt;&gt;" style="text;align=left;verticalAlign=top;spacingLeft=4;spacingRight=4;overflow=hidden;rotatable=0;points=[[0,0.5],[1,0.5]];portConstraint=eastwest;" parent="NYYMoiH2fDYC1uSWcf2y-2" vertex="1"><mxGeometry y="126" width="420" height="26" as="geometry"/></mxCell><mxCell id="NYYMoiH2fDYC1uSWcf2y-13" value="+ { suspend } sendPasswordChangeRequest(email: String): Result&lt;Nothing&gt;" style="text;align=left;verticalAlign=top;spacingLeft=4;spacingRight=4;overflow=hidden;rotatable=0;points=[[0,0.5],[1,0.5]];portConstraint=eastwest;" parent="NYYMoiH2fDYC1uSWcf2y-2" vertex="1"><mxGeometry y="152" width="420" height="26" as="geometry"/></mxCell><mxCell id="NYYMoiH2fDYC1uSWcf2y-15" value="+ { suspend } getUserByUsername(username: String): Result&lt;User&gt;" style="text;align=left;verticalAlign=top;spacingLeft=4;spacingRight=4;overflow=hidden;rotatable=0;points=[[0,0.5],[1,0.5]];portConstraint=eastwest;" parent="NYYMoiH2fDYC1uSWcf2y-2" vertex="1"><mxGeometry y="178" width="420" height="26" as="geometry"/></mxCell><mxCell id="NYYMoiH2fDYC1uSWcf2y-16" value="" style="endArrow=block;dashed=1;endFill=0;endSize=12;html=1;rounded=0;" parent="WIyWlLk6GJQsqaUBKTNV-1" source="zkfFHV4jXpPFQw0GAbJ--17" target="NYYMoiH2fDYC1uSWcf2y-2" edge="1"><mxGeometry width="160" relative="1" as="geometry"><mxPoint x="760" y="360" as="sourcePoint"/><mxPoint x="920" y="360" as="targetPoint"/></mxGeometry></mxCell><mxCell id="NYYMoiH2fDYC1uSWcf2y-21" value="Use" style="endArrow=open;endSize=12;dashed=1;html=1;rounded=0;" parent="WIyWlLk6GJQsqaUBKTNV-1" source="zkfFHV4jXpPFQw0GAbJ--0" target="NYYMoiH2fDYC1uSWcf2y-2" edge="1"><mxGeometry width="160" relative="1" as="geometry"><mxPoint x="760" y="360" as="sourcePoint"/><mxPoint x="920" y="360" as="targetPoint"/></mxGeometry></mxCell><mxCell id="NYYMoiH2fDYC1uSWcf2y-22" value="&lt;&lt;sealed class&gt;&gt;&#10;Result&lt;T&gt;" style="swimlane;fontStyle=0;align=center;verticalAlign=top;childLayout=stackLayout;horizontal=1;startSize=40;horizontalStack=0;resizeParent=1;resizeParentMax=0;resizeLast=0;collapsible=1;marginBottom=0;" parent="WIyWlLk6GJQsqaUBKTNV-1" vertex="1"><mxGeometry x="820" y="642" width="160" height="48" as="geometry"/></mxCell><mxCell id="NYYMoiH2fDYC1uSWcf2y-24" value="" style="line;strokeWidth=1;fillColor=none;align=left;verticalAlign=middle;spacingTop=-1;spacingLeft=3;spacingRight=3;rotatable=0;labelPosition=right;points=[];portConstraint=eastwest;strokeColor=inherit;" parent="NYYMoiH2fDYC1uSWcf2y-22" vertex="1"><mxGeometry y="40" width="160" height="8" as="geometry"/></mxCell><mxCell id="NYYMoiH2fDYC1uSWcf2y-26" value="Success&lt;T&gt;" style="swimlane;fontStyle=0;align=center;verticalAlign=top;childLayout=stackLayout;horizontal=1;startSize=26;horizontalStack=0;resizeParent=1;resizeParentMax=0;resizeLast=0;collapsible=1;marginBottom=0;" parent="WIyWlLk6GJQsqaUBKTNV-1" vertex="1"><mxGeometry x="1170" y="652" width="160" height="86" as="geometry"/></mxCell><mxCell id="NYYMoiH2fDYC1uSWcf2y-27" value="+ data: T { readOnly }" style="text;strokeColor=none;fillColor=none;align=left;verticalAlign=top;spacingLeft=4;spacingRight=4;overflow=hidden;rotatable=0;points=[[0,0.5],[1,0.5]];portConstraint=eastwest;" parent="NYYMoiH2fDYC1uSWcf2y-26" vertex="1"><mxGeometry y="26" width="160" height="26" as="geometry"/></mxCell><mxCell id="NYYMoiH2fDYC1uSWcf2y-28" value="" style="line;strokeWidth=1;fillColor=none;align=left;verticalAlign=middle;spacingTop=-1;spacingLeft=3;spacingRight=3;rotatable=0;labelPosition=right;points=[];portConstraint=eastwest;strokeColor=inherit;" parent="NYYMoiH2fDYC1uSWcf2y-26" vertex="1"><mxGeometry y="52" width="160" height="8" as="geometry"/></mxCell><mxCell id="NYYMoiH2fDYC1uSWcf2y-228" value="+ Success(data: T)" style="text;strokeColor=none;fillColor=none;align=left;verticalAlign=top;spacingLeft=4;spacingRight=4;overflow=hidden;rotatable=0;points=[[0,0.5],[1,0.5]];portConstraint=eastwest;" parent="NYYMoiH2fDYC1uSWcf2y-26" vertex="1"><mxGeometry y="60" width="160" height="26" as="geometry"/></mxCell><mxCell id="NYYMoiH2fDYC1uSWcf2y-31" value="Error" style="swimlane;fontStyle=0;align=center;verticalAlign=top;childLayout=stackLayout;horizontal=1;startSize=26;horizontalStack=0;resizeParent=1;resizeParentMax=0;resizeLast=0;collapsible=1;marginBottom=0;" parent="WIyWlLk6GJQsqaUBKTNV-1" vertex="1"><mxGeometry x="930" y="494" width="190" height="86" as="geometry"/></mxCell><mxCell id="NYYMoiH2fDYC1uSWcf2y-33" value="+ message: String { readOnly }" style="text;strokeColor=none;fillColor=none;align=left;verticalAlign=top;spacingLeft=4;spacingRight=4;overflow=hidden;rotatable=0;points=[[0,0.5],[1,0.5]];portConstraint=eastwest;" parent="NYYMoiH2fDYC1uSWcf2y-31" vertex="1"><mxGeometry y="26" width="190" height="26" as="geometry"/></mxCell><mxCell id="NYYMoiH2fDYC1uSWcf2y-34" value="" style="line;strokeWidth=1;fillColor=none;align=left;verticalAlign=middle;spacingTop=-1;spacingLeft=3;spacingRight=3;rotatable=0;labelPosition=right;points=[];portConstraint=eastwest;strokeColor=inherit;" parent="NYYMoiH2fDYC1uSWcf2y-31" vertex="1"><mxGeometry y="52" width="190" height="8" as="geometry"/></mxCell><mxCell id="NYYMoiH2fDYC1uSWcf2y-229" value="+ Error(message: String)" style="text;strokeColor=none;fillColor=none;align=left;verticalAlign=top;spacingLeft=4;spacingRight=4;overflow=hidden;rotatable=0;points=[[0,0.5],[1,0.5]];portConstraint=eastwest;" parent="NYYMoiH2fDYC1uSWcf2y-31" vertex="1"><mxGeometry y="60" width="190" height="26" as="geometry"/></mxCell><mxCell id="NYYMoiH2fDYC1uSWcf2y-35" value="Extends" style="endArrow=block;endSize=16;endFill=0;html=1;rounded=0;" parent="WIyWlLk6GJQsqaUBKTNV-1" source="NYYMoiH2fDYC1uSWcf2y-26" target="NYYMoiH2fDYC1uSWcf2y-22" edge="1"><mxGeometry width="160" relative="1" as="geometry"><mxPoint x="780" y="410" as="sourcePoint"/><mxPoint x="940" y="410" as="targetPoint"/></mxGeometry></mxCell><mxCell id="NYYMoiH2fDYC1uSWcf2y-36" value="Extends" style="endArrow=block;endSize=16;endFill=0;html=1;rounded=0;" parent="WIyWlLk6GJQsqaUBKTNV-1" source="NYYMoiH2fDYC1uSWcf2y-31" target="NYYMoiH2fDYC1uSWcf2y-22" edge="1"><mxGeometry width="160" relative="1" as="geometry"><mxPoint x="780" y="410" as="sourcePoint"/><mxPoint x="940" y="410" as="targetPoint"/></mxGeometry></mxCell><mxCell id="NYYMoiH2fDYC1uSWcf2y-37" value="Use" style="endArrow=open;endSize=12;dashed=1;html=1;rounded=0;" parent="WIyWlLk6GJQsqaUBKTNV-1" source="NYYMoiH2fDYC1uSWcf2y-22" target="NYYMoiH2fDYC1uSWcf2y-2" edge="1"><mxGeometry width="160" relative="1" as="geometry"><mxPoint x="590" y="276.1578947368421" as="sourcePoint"/><mxPoint x="710" y="268.8947368421053" as="targetPoint"/><Array as="points"><mxPoint x="800" y="510"/></Array></mxGeometry></mxCell><mxCell id="NYYMoiH2fDYC1uSWcf2y-50" value="&lt;&lt;data class&gt;&#10;ItemSubData" style="swimlane;fontStyle=0;align=center;verticalAlign=top;childLayout=stackLayout;horizontal=1;startSize=40;horizontalStack=0;resizeParent=1;resizeParentMax=0;resizeLast=0;collapsible=1;marginBottom=0;" parent="WIyWlLk6GJQsqaUBKTNV-1" vertex="1"><mxGeometry x="370" y="1210" width="200" height="810" as="geometry"/></mxCell><mxCell id="NYYMoiH2fDYC1uSWcf2y-51" value="+ title: String { readOnly }" style="text;strokeColor=none;fillColor=none;align=left;verticalAlign=top;spacingLeft=4;spacingRight=4;overflow=hidden;rotatable=0;points=[[0,0.5],[1,0.5]];portConstraint=eastwest;" parent="NYYMoiH2fDYC1uSWcf2y-50" vertex="1"><mxGeometry y="40" width="200" height="26" as="geometry"/></mxCell><mxCell id="NYYMoiH2fDYC1uSWcf2y-54" value="+ people: Person [0..n] { readOnly }" style="text;strokeColor=none;fillColor=none;align=left;verticalAlign=top;spacingLeft=4;spacingRight=4;overflow=hidden;rotatable=0;points=[[0,0.5],[1,0.5]];portConstraint=eastwest;" parent="NYYMoiH2fDYC1uSWcf2y-50" vertex="1"><mxGeometry y="66" width="200" height="26" as="geometry"/></mxCell><mxCell id="NYYMoiH2fDYC1uSWcf2y-55" value="+ abstract: String { readOnly }" style="text;strokeColor=none;fillColor=none;align=left;verticalAlign=top;spacingLeft=4;spacingRight=4;overflow=hidden;rotatable=0;points=[[0,0.5],[1,0.5]];portConstraint=eastwest;" parent="NYYMoiH2fDYC1uSWcf2y-50" vertex="1"><mxGeometry y="92" width="200" height="26" as="geometry"/></mxCell><mxCell id="NYYMoiH2fDYC1uSWcf2y-62" value="+ publisher: String { readOnly }" style="text;strokeColor=none;fillColor=none;align=left;verticalAlign=top;spacingLeft=4;spacingRight=4;overflow=hidden;rotatable=0;points=[[0,0.5],[1,0.5]];portConstraint=eastwest;" parent="NYYMoiH2fDYC1uSWcf2y-50" vertex="1"><mxGeometry y="118" width="200" height="26" as="geometry"/></mxCell><mxCell id="NYYMoiH2fDYC1uSWcf2y-63" value="+ date: Date { readOnly }" style="text;strokeColor=none;fillColor=none;align=left;verticalAlign=top;spacingLeft=4;spacingRight=4;overflow=hidden;rotatable=0;points=[[0,0.5],[1,0.5]];portConstraint=eastwest;" parent="NYYMoiH2fDYC1uSWcf2y-50" vertex="1"><mxGeometry y="144" width="200" height="26" as="geometry"/></mxCell><mxCell id="NYYMoiH2fDYC1uSWcf2y-64" value="+ numberOfPages: UInt { readOnly }" style="text;strokeColor=none;fillColor=none;align=left;verticalAlign=top;spacingLeft=4;spacingRight=4;overflow=hidden;rotatable=0;points=[[0,0.5],[1,0.5]];portConstraint=eastwest;" parent="NYYMoiH2fDYC1uSWcf2y-50" vertex="1"><mxGeometry y="170" width="200" height="26" as="geometry"/></mxCell><mxCell id="NYYMoiH2fDYC1uSWcf2y-65" value="+ isbn: String { readOnly }" style="text;strokeColor=none;fillColor=none;align=left;verticalAlign=top;spacingLeft=4;spacingRight=4;overflow=hidden;rotatable=0;points=[[0,0.5],[1,0.5]];portConstraint=eastwest;" parent="NYYMoiH2fDYC1uSWcf2y-50" vertex="1"><mxGeometry y="196" width="200" height="26" as="geometry"/></mxCell><mxCell id="NYYMoiH2fDYC1uSWcf2y-66" value="+ shortTitle: String { readOnly }" style="text;strokeColor=none;fillColor=none;align=left;verticalAlign=top;spacingLeft=4;spacingRight=4;overflow=hidden;rotatable=0;points=[[0,0.5],[1,0.5]];portConstraint=eastwest;" parent="NYYMoiH2fDYC1uSWcf2y-50" vertex="1"><mxGeometry y="222" width="200" height="26" as="geometry"/></mxCell><mxCell id="NYYMoiH2fDYC1uSWcf2y-67" value="+ url: String { readOnly }" style="text;strokeColor=none;fillColor=none;align=left;verticalAlign=top;spacingLeft=4;spacingRight=4;overflow=hidden;rotatable=0;points=[[0,0.5],[1,0.5]];portConstraint=eastwest;" parent="NYYMoiH2fDYC1uSWcf2y-50" vertex="1"><mxGeometry y="248" width="200" height="26" as="geometry"/></mxCell><mxCell id="NYYMoiH2fDYC1uSWcf2y-68" value="+ accessed: Date { readOnly }" style="text;strokeColor=none;fillColor=none;align=left;verticalAlign=top;spacingLeft=4;spacingRight=4;overflow=hidden;rotatable=0;points=[[0,0.5],[1,0.5]];portConstraint=eastwest;" parent="NYYMoiH2fDYC1uSWcf2y-50" vertex="1"><mxGeometry y="274" width="200" height="26" as="geometry"/></mxCell><mxCell id="NYYMoiH2fDYC1uSWcf2y-69" value="+ archive: String { readOnly }" style="text;strokeColor=none;fillColor=none;align=left;verticalAlign=top;spacingLeft=4;spacingRight=4;overflow=hidden;rotatable=0;points=[[0,0.5],[1,0.5]];portConstraint=eastwest;" parent="NYYMoiH2fDYC1uSWcf2y-50" vertex="1"><mxGeometry y="300" width="200" height="26" as="geometry"/></mxCell><mxCell id="NYYMoiH2fDYC1uSWcf2y-70" value="+ locationInArchive: String { readOnly }" style="text;strokeColor=none;fillColor=none;align=left;verticalAlign=top;spacingLeft=4;spacingRight=4;overflow=hidden;rotatable=0;points=[[0,0.5],[1,0.5]];portConstraint=eastwest;" parent="NYYMoiH2fDYC1uSWcf2y-50" vertex="1"><mxGeometry y="326" width="200" height="26" as="geometry"/></mxCell><mxCell id="NYYMoiH2fDYC1uSWcf2y-71" value="+ libraryCatalog: String { readOnly }" style="text;strokeColor=none;fillColor=none;align=left;verticalAlign=top;spacingLeft=4;spacingRight=4;overflow=hidden;rotatable=0;points=[[0,0.5],[1,0.5]];portConstraint=eastwest;" parent="NYYMoiH2fDYC1uSWcf2y-50" vertex="1"><mxGeometry y="352" width="200" height="26" as="geometry"/></mxCell><mxCell id="NYYMoiH2fDYC1uSWcf2y-72" value="+ callNumber: String { readOnly }" style="text;strokeColor=none;fillColor=none;align=left;verticalAlign=top;spacingLeft=4;spacingRight=4;overflow=hidden;rotatable=0;points=[[0,0.5],[1,0.5]];portConstraint=eastwest;" parent="NYYMoiH2fDYC1uSWcf2y-50" vertex="1"><mxGeometry y="378" width="200" height="26" as="geometry"/></mxCell><mxCell id="NYYMoiH2fDYC1uSWcf2y-73" value="+ rights: String { readOnly }" style="text;strokeColor=none;fillColor=none;align=left;verticalAlign=top;spacingLeft=4;spacingRight=4;overflow=hidden;rotatable=0;points=[[0,0.5],[1,0.5]];portConstraint=eastwest;" parent="NYYMoiH2fDYC1uSWcf2y-50" vertex="1"><mxGeometry y="404" width="200" height="26" as="geometry"/></mxCell><mxCell id="NYYMoiH2fDYC1uSWcf2y-74" value="+ extra: String { readOnly }" style="text;strokeColor=none;fillColor=none;align=left;verticalAlign=top;spacingLeft=4;spacingRight=4;overflow=hidden;rotatable=0;points=[[0,0.5],[1,0.5]];portConstraint=eastwest;" parent="NYYMoiH2fDYC1uSWcf2y-50" vertex="1"><mxGeometry y="430" width="200" height="26" as="geometry"/></mxCell><mxCell id="NYYMoiH2fDYC1uSWcf2y-75" value="+ dateAdded: DateTime { readOnly }" style="text;strokeColor=none;fillColor=none;align=left;verticalAlign=top;spacingLeft=4;spacingRight=4;overflow=hidden;rotatable=0;points=[[0,0.5],[1,0.5]];portConstraint=eastwest;" parent="NYYMoiH2fDYC1uSWcf2y-50" vertex="1"><mxGeometry y="456" width="200" height="26" as="geometry"/></mxCell><mxCell id="NYYMoiH2fDYC1uSWcf2y-76" value="+ modified: DateTime { readOnly }" style="text;strokeColor=none;fillColor=none;align=left;verticalAlign=top;spacingLeft=4;spacingRight=4;overflow=hidden;rotatable=0;points=[[0,0.5],[1,0.5]];portConstraint=eastwest;" parent="NYYMoiH2fDYC1uSWcf2y-50" vertex="1"><mxGeometry y="482" width="200" height="26" as="geometry"/></mxCell><mxCell id="NYYMoiH2fDYC1uSWcf2y-52" value="" style="line;strokeWidth=1;fillColor=none;align=left;verticalAlign=middle;spacingTop=-1;spacingLeft=3;spacingRight=3;rotatable=0;labelPosition=right;points=[];portConstraint=eastwest;strokeColor=inherit;" parent="NYYMoiH2fDYC1uSWcf2y-50" vertex="1"><mxGeometry y="508" width="200" height="14" as="geometry"/></mxCell><mxCell id="NYYMoiH2fDYC1uSWcf2y-168" value="+ ZoteroItem(&#10;        title: String,&#10;        people: Person [0..n],&#10;        abstract: String,&#10;        publisher: String,&#10;        date: Date,&#10;        numberOfPages: UInt,&#10;        isbn: String,&#10;        shortTitle: String,&#10;        url: String.&#10;        accessed: Date,&#10;        archive: String,&#10;        locationInArchive: String,&#10;        libraryCatalog: String,&#10;        callNumber: String,&#10;        rights: String,&#10;        extra: String,&#10;        dateAdded: DateTime,&#10;        modifier: DateTime&#10;    )" style="text;strokeColor=none;fillColor=none;align=left;verticalAlign=top;spacingLeft=4;spacingRight=4;overflow=hidden;rotatable=0;points=[[0,0.5],[1,0.5]];portConstraint=eastwest;fontStyle=0" parent="NYYMoiH2fDYC1uSWcf2y-50" vertex="1"><mxGeometry y="522" width="200" height="288" as="geometry"/></mxCell><mxCell id="NYYMoiH2fDYC1uSWcf2y-77" value="&lt;&lt;data class&gt;&gt;&#10;Person" style="swimlane;fontStyle=0;align=center;verticalAlign=top;childLayout=stackLayout;horizontal=1;startSize=44;horizontalStack=0;resizeParent=1;resizeParentMax=0;resizeLast=0;collapsible=1;marginBottom=0;" parent="WIyWlLk6GJQsqaUBKTNV-1" vertex="1"><mxGeometry x="15" y="1861" width="220" height="208" as="geometry"/></mxCell><mxCell id="NYYMoiH2fDYC1uSWcf2y-78" value="+ personType: PersonType { readOnly }" style="text;strokeColor=none;fillColor=none;align=left;verticalAlign=top;spacingLeft=4;spacingRight=4;overflow=hidden;rotatable=0;points=[[0,0.5],[1,0.5]];portConstraint=eastwest;" parent="NYYMoiH2fDYC1uSWcf2y-77" vertex="1"><mxGeometry y="44" width="220" height="26" as="geometry"/></mxCell><mxCell id="NYYMoiH2fDYC1uSWcf2y-81" value="+ firstName: String { readOnly }" style="text;strokeColor=none;fillColor=none;align=left;verticalAlign=top;spacingLeft=4;spacingRight=4;overflow=hidden;rotatable=0;points=[[0,0.5],[1,0.5]];portConstraint=eastwest;" parent="NYYMoiH2fDYC1uSWcf2y-77" vertex="1"><mxGeometry y="70" width="220" height="26" as="geometry"/></mxCell><mxCell id="NYYMoiH2fDYC1uSWcf2y-82" value="+ lastName: String { readOnly }" style="text;strokeColor=none;fillColor=none;align=left;verticalAlign=top;spacingLeft=4;spacingRight=4;overflow=hidden;rotatable=0;points=[[0,0.5],[1,0.5]];portConstraint=eastwest;" parent="NYYMoiH2fDYC1uSWcf2y-77" vertex="1"><mxGeometry y="96" width="220" height="26" as="geometry"/></mxCell><mxCell id="NYYMoiH2fDYC1uSWcf2y-79" value="" style="line;strokeWidth=1;fillColor=none;align=left;verticalAlign=middle;spacingTop=-1;spacingLeft=3;spacingRight=3;rotatable=0;labelPosition=right;points=[];portConstraint=eastwest;strokeColor=inherit;" parent="NYYMoiH2fDYC1uSWcf2y-77" vertex="1"><mxGeometry y="122" width="220" height="8" as="geometry"/></mxCell><mxCell id="NYYMoiH2fDYC1uSWcf2y-165" value="+ Person(&#10;        personType: PersonType,&#10;        firstName: String,&#10;        lastName: String,&#10;    )" style="text;strokeColor=none;fillColor=none;align=left;verticalAlign=top;spacingLeft=4;spacingRight=4;overflow=hidden;rotatable=0;points=[[0,0.5],[1,0.5]];portConstraint=eastwest;" parent="NYYMoiH2fDYC1uSWcf2y-77" vertex="1"><mxGeometry y="130" width="220" height="78" as="geometry"/></mxCell><mxCell id="NYYMoiH2fDYC1uSWcf2y-83" value="&lt;&lt;enumeraqation&gt;&gt;&#10;PersonType" style="swimlane;fontStyle=0;childLayout=stackLayout;horizontal=1;startSize=40;fillColor=none;horizontalStack=0;resizeParent=1;resizeParentMax=0;resizeLast=0;collapsible=1;marginBottom=0;" parent="WIyWlLk6GJQsqaUBKTNV-1" vertex="1"><mxGeometry x="55" y="1576" width="140" height="196" as="geometry"/></mxCell><mxCell id="NYYMoiH2fDYC1uSWcf2y-84" value="Author" style="text;strokeColor=none;fillColor=none;align=left;verticalAlign=top;spacingLeft=4;spacingRight=4;overflow=hidden;rotatable=0;points=[[0,0.5],[1,0.5]];portConstraint=eastwest;" parent="NYYMoiH2fDYC1uSWcf2y-83" vertex="1"><mxGeometry y="40" width="140" height="26" as="geometry"/></mxCell><mxCell id="NYYMoiH2fDYC1uSWcf2y-85" value="BookAuthor" style="text;strokeColor=none;fillColor=none;align=left;verticalAlign=top;spacingLeft=4;spacingRight=4;overflow=hidden;rotatable=0;points=[[0,0.5],[1,0.5]];portConstraint=eastwest;" parent="NYYMoiH2fDYC1uSWcf2y-83" vertex="1"><mxGeometry y="66" width="140" height="26" as="geometry"/></mxCell><mxCell id="NYYMoiH2fDYC1uSWcf2y-86" value="Contributor" style="text;strokeColor=none;fillColor=none;align=left;verticalAlign=top;spacingLeft=4;spacingRight=4;overflow=hidden;rotatable=0;points=[[0,0.5],[1,0.5]];portConstraint=eastwest;" parent="NYYMoiH2fDYC1uSWcf2y-83" vertex="1"><mxGeometry y="92" width="140" height="26" as="geometry"/></mxCell><mxCell id="NYYMoiH2fDYC1uSWcf2y-87" value="Editor" style="text;strokeColor=none;fillColor=none;align=left;verticalAlign=top;spacingLeft=4;spacingRight=4;overflow=hidden;rotatable=0;points=[[0,0.5],[1,0.5]];portConstraint=eastwest;" parent="NYYMoiH2fDYC1uSWcf2y-83" vertex="1"><mxGeometry y="118" width="140" height="26" as="geometry"/></mxCell><mxCell id="NYYMoiH2fDYC1uSWcf2y-88" value="SeriesEditor" style="text;strokeColor=none;fillColor=none;align=left;verticalAlign=top;spacingLeft=4;spacingRight=4;overflow=hidden;rotatable=0;points=[[0,0.5],[1,0.5]];portConstraint=eastwest;" parent="NYYMoiH2fDYC1uSWcf2y-83" vertex="1"><mxGeometry y="144" width="140" height="26" as="geometry"/></mxCell><mxCell id="NYYMoiH2fDYC1uSWcf2y-89" value="Translator" style="text;strokeColor=none;fillColor=none;align=left;verticalAlign=top;spacingLeft=4;spacingRight=4;overflow=hidden;rotatable=0;points=[[0,0.5],[1,0.5]];portConstraint=eastwest;" parent="NYYMoiH2fDYC1uSWcf2y-83" vertex="1"><mxGeometry y="170" width="140" height="26" as="geometry"/></mxCell><mxCell id="NYYMoiH2fDYC1uSWcf2y-90" value="1" style="endArrow=open;html=1;endSize=12;startArrow=diamondThin;startSize=14;startFill=1;edgeStyle=orthogonalEdgeStyle;align=left;verticalAlign=bottom;rounded=0;" parent="WIyWlLk6GJQsqaUBKTNV-1" source="NYYMoiH2fDYC1uSWcf2y-77" target="NYYMoiH2fDYC1uSWcf2y-83" edge="1"><mxGeometry x="-0.7468" y="-10" relative="1" as="geometry"><mxPoint x="980" y="1010" as="sourcePoint"/><mxPoint x="1140" y="1010" as="targetPoint"/><mxPoint as="offset"/></mxGeometry></mxCell><mxCell id="NYYMoiH2fDYC1uSWcf2y-91" value="" style="endArrow=none;html=1;edgeStyle=orthogonalEdgeStyle;rounded=0;startArrow=none;" parent="WIyWlLk6GJQsqaUBKTNV-1" source="NYYMoiH2fDYC1uSWcf2y-50" target="NYYMoiH2fDYC1uSWcf2y-77" edge="1"><mxGeometry relative="1" as="geometry"><mxPoint x="980" y="930" as="sourcePoint"/><mxPoint x="1140" y="930" as="targetPoint"/></mxGeometry></mxCell><mxCell id="NYYMoiH2fDYC1uSWcf2y-93" value="*" style="edgeLabel;resizable=0;html=1;align=right;verticalAlign=bottom;" parent="NYYMoiH2fDYC1uSWcf2y-91" connectable="0" vertex="1"><mxGeometry x="1" relative="1" as="geometry"><mxPoint x="9" as="offset"/></mxGeometry></mxCell><mxCell id="NYYMoiH2fDYC1uSWcf2y-105" value="BookSection" style="swimlane;fontStyle=0;align=center;verticalAlign=top;childLayout=stackLayout;horizontal=1;startSize=26;horizontalStack=0;resizeParent=1;resizeParentMax=0;resizeLast=0;collapsible=1;marginBottom=0;" parent="WIyWlLk6GJQsqaUBKTNV-1" vertex="1"><mxGeometry x="334" y="990" width="332" height="190" as="geometry"/></mxCell><mxCell id="NYYMoiH2fDYC1uSWcf2y-106" value="+ pages: IntRage { readOnly }" style="text;strokeColor=none;fillColor=none;align=left;verticalAlign=top;spacingLeft=4;spacingRight=4;overflow=hidden;rotatable=0;points=[[0,0.5],[1,0.5]];portConstraint=eastwest;" parent="NYYMoiH2fDYC1uSWcf2y-105" vertex="1"><mxGeometry y="26" width="332" height="26" as="geometry"/></mxCell><mxCell id="NYYMoiH2fDYC1uSWcf2y-109" value="+ language: String { readOnly }" style="text;strokeColor=none;fillColor=none;align=left;verticalAlign=top;spacingLeft=4;spacingRight=4;overflow=hidden;rotatable=0;points=[[0,0.5],[1,0.5]];portConstraint=eastwest;" parent="NYYMoiH2fDYC1uSWcf2y-105" vertex="1"><mxGeometry y="52" width="332" height="26" as="geometry"/></mxCell><mxCell id="146" value="+ bookRelatedSubData: BookRelatedSubData { readOnly }" style="text;strokeColor=none;fillColor=none;align=left;verticalAlign=top;spacingLeft=4;spacingRight=4;overflow=hidden;rotatable=0;points=[[0,0.5],[1,0.5]];portConstraint=eastwest;" vertex="1" parent="NYYMoiH2fDYC1uSWcf2y-105"><mxGeometry y="78" width="332" height="26" as="geometry"/></mxCell><mxCell id="NYYMoiH2fDYC1uSWcf2y-107" value="" style="line;strokeWidth=1;fillColor=none;align=left;verticalAlign=middle;spacingTop=-1;spacingLeft=3;spacingRight=3;rotatable=0;labelPosition=right;points=[];portConstraint=eastwest;strokeColor=inherit;" parent="NYYMoiH2fDYC1uSWcf2y-105" vertex="1"><mxGeometry y="104" width="332" height="8" as="geometry"/></mxCell><mxCell id="NYYMoiH2fDYC1uSWcf2y-169" value="+ BookSection(&#10;        pages: IntRange,&#10;        language: String,&#10;        bookRelatedSubData: BookRelatedSubData&#10;    )" style="text;strokeColor=none;fillColor=none;align=left;verticalAlign=top;spacingLeft=4;spacingRight=4;overflow=hidden;rotatable=0;points=[[0,0.5],[1,0.5]];portConstraint=eastwest;" parent="NYYMoiH2fDYC1uSWcf2y-105" vertex="1"><mxGeometry y="112" width="332" height="78" as="geometry"/></mxCell><mxCell id="NYYMoiH2fDYC1uSWcf2y-123" value="&lt;&lt;data class&gt;&gt;&#10;Book" style="swimlane;fontStyle=0;align=center;verticalAlign=top;childLayout=stackLayout;horizontal=1;startSize=40;horizontalStack=0;resizeParent=1;resizeParentMax=0;resizeLast=0;collapsible=1;marginBottom=0;" parent="WIyWlLk6GJQsqaUBKTNV-1" vertex="1"><mxGeometry y="942" width="320" height="130" as="geometry"/></mxCell><mxCell id="NYYMoiH2fDYC1uSWcf2y-170" value="+ bookRelatedItemSubData { readOnly }" style="text;strokeColor=none;fillColor=none;align=left;verticalAlign=top;spacingLeft=4;spacingRight=4;overflow=hidden;rotatable=0;points=[[0,0.5],[1,0.5]];portConstraint=eastwest;" parent="NYYMoiH2fDYC1uSWcf2y-123" vertex="1"><mxGeometry y="40" width="320" height="26" as="geometry"/></mxCell><mxCell id="NYYMoiH2fDYC1uSWcf2y-125" value="" style="line;strokeWidth=1;fillColor=none;align=left;verticalAlign=middle;spacingTop=-1;spacingLeft=3;spacingRight=3;rotatable=0;labelPosition=right;points=[];portConstraint=eastwest;strokeColor=inherit;" parent="NYYMoiH2fDYC1uSWcf2y-123" vertex="1"><mxGeometry y="66" width="320" height="8" as="geometry"/></mxCell><mxCell id="150" value="+ Book(&#10;    bookRelatedItemSubData: BookRelatedItemSubData&#10;)" style="text;strokeColor=none;fillColor=none;align=left;verticalAlign=top;spacingLeft=4;spacingRight=4;overflow=hidden;rotatable=0;points=[[0,0.5],[1,0.5]];portConstraint=eastwest;" vertex="1" parent="NYYMoiH2fDYC1uSWcf2y-123"><mxGeometry y="74" width="320" height="56" as="geometry"/></mxCell><mxCell id="NYYMoiH2fDYC1uSWcf2y-128" value="&lt;&lt;data class&gt;&gt;&#10;Document" style="swimlane;fontStyle=0;align=center;verticalAlign=top;childLayout=stackLayout;horizontal=1;startSize=35;horizontalStack=0;resizeParent=1;resizeParentMax=0;resizeLast=0;collapsible=1;marginBottom=0;" parent="WIyWlLk6GJQsqaUBKTNV-1" vertex="1"><mxGeometry x="355" y="2067.5" width="230" height="157" as="geometry"/></mxCell><mxCell id="NYYMoiH2fDYC1uSWcf2y-129" value="+ language: String { readOnly }," style="text;strokeColor=none;fillColor=none;align=left;verticalAlign=top;spacingLeft=4;spacingRight=4;overflow=hidden;rotatable=0;points=[[0,0.5],[1,0.5]];portConstraint=eastwest;" parent="NYYMoiH2fDYC1uSWcf2y-128" vertex="1"><mxGeometry y="35" width="230" height="24" as="geometry"/></mxCell><mxCell id="143" value="+ itemSubData: ItemSubData { readOnly }" style="text;strokeColor=none;fillColor=none;align=left;verticalAlign=top;spacingLeft=4;spacingRight=4;overflow=hidden;rotatable=0;points=[[0,0.5],[1,0.5]];portConstraint=eastwest;" vertex="1" parent="NYYMoiH2fDYC1uSWcf2y-128"><mxGeometry y="59" width="230" height="30" as="geometry"/></mxCell><mxCell id="NYYMoiH2fDYC1uSWcf2y-130" value="" style="line;strokeWidth=1;fillColor=none;align=left;verticalAlign=middle;spacingTop=-1;spacingLeft=3;spacingRight=3;rotatable=0;labelPosition=right;points=[];portConstraint=eastwest;strokeColor=inherit;" parent="NYYMoiH2fDYC1uSWcf2y-128" vertex="1"><mxGeometry y="89" width="230" height="6" as="geometry"/></mxCell><mxCell id="NYYMoiH2fDYC1uSWcf2y-167" value="+ Document(&#10;        language: String,&#10;        itemSubData: ItemSubData&#10;    )" style="text;strokeColor=none;fillColor=none;align=left;verticalAlign=top;spacingLeft=4;spacingRight=4;overflow=hidden;rotatable=0;points=[[0,0.5],[1,0.5]];portConstraint=eastwest;" parent="NYYMoiH2fDYC1uSWcf2y-128" vertex="1"><mxGeometry y="95" width="230" height="62" as="geometry"/></mxCell><mxCell id="NYYMoiH2fDYC1uSWcf2y-141" value="&lt;&lt;interface&gt;&gt;&#10;IItemRepository" style="swimlane;fontStyle=0;align=center;verticalAlign=top;childLayout=stackLayout;horizontal=1;startSize=40;horizontalStack=0;resizeParent=1;resizeParentMax=0;resizeLast=0;collapsible=1;marginBottom=0;fontColor=default;" parent="WIyWlLk6GJQsqaUBKTNV-1" vertex="1"><mxGeometry x="520" y="764" width="460" height="178" as="geometry"/></mxCell><mxCell id="NYYMoiH2fDYC1uSWcf2y-143" value="" style="line;strokeWidth=1;fillColor=none;align=left;verticalAlign=middle;spacingTop=-1;spacingLeft=3;spacingRight=3;rotatable=0;labelPosition=right;points=[];portConstraint=eastwest;strokeColor=inherit;" parent="NYYMoiH2fDYC1uSWcf2y-141" vertex="1"><mxGeometry y="40" width="460" height="8" as="geometry"/></mxCell><mxCell id="NYYMoiH2fDYC1uSWcf2y-144" value="+ { suspend } getItemByTitle(title: String): Result&lt;ZoteroItem&gt;" style="text;strokeColor=none;fillColor=none;align=left;verticalAlign=top;spacingLeft=4;spacingRight=4;overflow=hidden;rotatable=0;points=[[0,0.5],[1,0.5]];portConstraint=eastwest;" parent="NYYMoiH2fDYC1uSWcf2y-141" vertex="1"><mxGeometry y="48" width="460" height="26" as="geometry"/></mxCell><mxCell id="NYYMoiH2fDYC1uSWcf2y-145" value="+ { suspend } addItem(item: ZoteroItem): Result&lt;Nothing&gt;" style="text;strokeColor=none;fillColor=none;align=left;verticalAlign=top;spacingLeft=4;spacingRight=4;overflow=hidden;rotatable=0;points=[[0,0.5],[1,0.5]];portConstraint=eastwest;" parent="NYYMoiH2fDYC1uSWcf2y-141" vertex="1"><mxGeometry y="74" width="460" height="26" as="geometry"/></mxCell><mxCell id="NYYMoiH2fDYC1uSWcf2y-147" value="+ { suspend } deleteItem(item: ZoteroItem): Result&lt;Nothing&gt;" style="text;strokeColor=none;fillColor=none;align=left;verticalAlign=top;spacingLeft=4;spacingRight=4;overflow=hidden;rotatable=0;points=[[0,0.5],[1,0.5]];portConstraint=eastwest;" parent="NYYMoiH2fDYC1uSWcf2y-141" vertex="1"><mxGeometry y="100" width="460" height="26" as="geometry"/></mxCell><mxCell id="NYYMoiH2fDYC1uSWcf2y-148" value="+ { suspend } updateItem(title: String, newItem: ZoteroItem): Result&lt;Nothing&gt;" style="text;strokeColor=none;fillColor=none;align=left;verticalAlign=top;spacingLeft=4;spacingRight=4;overflow=hidden;rotatable=0;points=[[0,0.5],[1,0.5]];portConstraint=eastwest;" parent="NYYMoiH2fDYC1uSWcf2y-141" vertex="1"><mxGeometry y="126" width="460" height="26" as="geometry"/></mxCell><mxCell id="37" value="+ { suspend } searchItem(marchAll: Boolean, searchQueries: List&lt;SearchQuery&gt;)" style="text;strokeColor=none;fillColor=none;align=left;verticalAlign=top;spacingLeft=4;spacingRight=4;overflow=hidden;rotatable=0;points=[[0,0.5],[1,0.5]];portConstraint=eastwest;" parent="NYYMoiH2fDYC1uSWcf2y-141" vertex="1"><mxGeometry y="152" width="460" height="26" as="geometry"/></mxCell><mxCell id="NYYMoiH2fDYC1uSWcf2y-150" value="ItemRepository" style="swimlane;fontStyle=0;align=center;verticalAlign=top;childLayout=stackLayout;horizontal=1;startSize=26;horizontalStack=0;resizeParent=1;resizeLast=0;collapsible=1;marginBottom=0;rounded=0;shadow=0;strokeWidth=1;" parent="WIyWlLk6GJQsqaUBKTNV-1" vertex="1"><mxGeometry x="750" y="1072" width="180" height="160" as="geometry"><mxRectangle x="550" y="140" width="160" height="26" as="alternateBounds"/></mxGeometry></mxCell><mxCell id="NYYMoiH2fDYC1uSWcf2y-151" value="- database: Database" style="text;align=left;verticalAlign=top;spacingLeft=4;spacingRight=4;overflow=hidden;rotatable=0;points=[[0,0.5],[1,0.5]];portConstraint=eastwest;" parent="NYYMoiH2fDYC1uSWcf2y-150" vertex="1"><mxGeometry y="26" width="180" height="26" as="geometry"/></mxCell><mxCell id="27" value="- client: HttpBookApiClient" style="text;align=left;verticalAlign=top;spacingLeft=4;spacingRight=4;overflow=hidden;rotatable=0;points=[[0,0.5],[1,0.5]];portConstraint=eastwest;" parent="NYYMoiH2fDYC1uSWcf2y-150" vertex="1"><mxGeometry y="52" width="180" height="26" as="geometry"/></mxCell><mxCell id="NYYMoiH2fDYC1uSWcf2y-152" value="" style="line;html=1;strokeWidth=1;align=left;verticalAlign=middle;spacingTop=-1;spacingLeft=3;spacingRight=3;rotatable=0;labelPosition=right;points=[];portConstraint=eastwest;" parent="NYYMoiH2fDYC1uSWcf2y-150" vertex="1"><mxGeometry y="78" width="180" height="10" as="geometry"/></mxCell><mxCell id="NYYMoiH2fDYC1uSWcf2y-208" value="+ LocalItemRepository(&#10;        database: Database,&#10;        client: HttpBookApiClient&#10;    )" style="text;align=left;verticalAlign=top;spacingLeft=4;spacingRight=4;overflow=hidden;rotatable=0;points=[[0,0.5],[1,0.5]];portConstraint=eastwest;" parent="NYYMoiH2fDYC1uSWcf2y-150" vertex="1"><mxGeometry y="88" width="180" height="72" as="geometry"/></mxCell><mxCell id="NYYMoiH2fDYC1uSWcf2y-156" value="" style="endArrow=block;dashed=1;endFill=0;endSize=12;html=1;rounded=0;" parent="WIyWlLk6GJQsqaUBKTNV-1" source="NYYMoiH2fDYC1uSWcf2y-150" target="NYYMoiH2fDYC1uSWcf2y-141" edge="1"><mxGeometry width="160" relative="1" as="geometry"><mxPoint x="990" y="470" as="sourcePoint"/><mxPoint x="890" y="376" as="targetPoint"/></mxGeometry></mxCell><mxCell id="NYYMoiH2fDYC1uSWcf2y-158" value="Use" style="endArrow=open;endSize=12;dashed=1;html=1;rounded=0;" parent="WIyWlLk6GJQsqaUBKTNV-1" source="NYYMoiH2fDYC1uSWcf2y-22" target="NYYMoiH2fDYC1uSWcf2y-141" edge="1"><mxGeometry width="160" relative="1" as="geometry"><mxPoint x="1290" y="296.33333333333326" as="sourcePoint"/><mxPoint x="1070" y="275.25" as="targetPoint"/></mxGeometry></mxCell><mxCell id="NYYMoiH2fDYC1uSWcf2y-159" value="Use" style="endArrow=open;endSize=12;dashed=1;html=1;rounded=0;" parent="WIyWlLk6GJQsqaUBKTNV-1" source="153" target="NYYMoiH2fDYC1uSWcf2y-141" edge="1"><mxGeometry width="160" relative="1" as="geometry"><mxPoint x="1381.815384615385" y="328" as="sourcePoint"/><mxPoint x="1486.1846153846154" y="540" as="targetPoint"/></mxGeometry></mxCell><mxCell id="NYYMoiH2fDYC1uSWcf2y-178" value="ZoteroCollection" style="swimlane;fontStyle=1;align=center;verticalAlign=top;childLayout=stackLayout;horizontal=1;startSize=26;horizontalStack=0;resizeParent=1;resizeParentMax=0;resizeLast=0;collapsible=1;marginBottom=0;fontColor=default;" parent="WIyWlLk6GJQsqaUBKTNV-1" vertex="1"><mxGeometry x="750" y="1270" width="220" height="150" as="geometry"/></mxCell><mxCell id="NYYMoiH2fDYC1uSWcf2y-183" value="+ title: String { readOnly }" style="text;strokeColor=none;fillColor=none;align=left;verticalAlign=top;spacingLeft=4;spacingRight=4;overflow=hidden;rotatable=0;points=[[0,0.5],[1,0.5]];portConstraint=eastwest;fontColor=default;" parent="NYYMoiH2fDYC1uSWcf2y-178" vertex="1"><mxGeometry y="26" width="220" height="26" as="geometry"/></mxCell><mxCell id="NYYMoiH2fDYC1uSWcf2y-179" value="+ items: Item [1..n] { readOnly }" style="text;strokeColor=none;fillColor=none;align=left;verticalAlign=top;spacingLeft=4;spacingRight=4;overflow=hidden;rotatable=0;points=[[0,0.5],[1,0.5]];portConstraint=eastwest;fontColor=default;" parent="NYYMoiH2fDYC1uSWcf2y-178" vertex="1"><mxGeometry y="52" width="220" height="26" as="geometry"/></mxCell><mxCell id="NYYMoiH2fDYC1uSWcf2y-180" value="" style="line;strokeWidth=1;fillColor=none;align=left;verticalAlign=middle;spacingTop=-1;spacingLeft=3;spacingRight=3;rotatable=0;labelPosition=right;points=[];portConstraint=eastwest;strokeColor=inherit;fontColor=default;" parent="NYYMoiH2fDYC1uSWcf2y-178" vertex="1"><mxGeometry y="78" width="220" height="8" as="geometry"/></mxCell><mxCell id="NYYMoiH2fDYC1uSWcf2y-181" value="+ ZoteroCollection(&#10;        title: String,&#10;        items: Item[1..n]&#10;    )" style="text;strokeColor=none;fillColor=none;align=left;verticalAlign=top;spacingLeft=4;spacingRight=4;overflow=hidden;rotatable=0;points=[[0,0.5],[1,0.5]];portConstraint=eastwest;fontColor=default;" parent="NYYMoiH2fDYC1uSWcf2y-178" vertex="1"><mxGeometry y="86" width="220" height="64" as="geometry"/></mxCell><mxCell id="NYYMoiH2fDYC1uSWcf2y-184" value="" style="endArrow=none;html=1;edgeStyle=orthogonalEdgeStyle;rounded=0;" parent="WIyWlLk6GJQsqaUBKTNV-1" source="153" target="NYYMoiH2fDYC1uSWcf2y-178" edge="1"><mxGeometry relative="1" as="geometry"><mxPoint x="1020" y="1035.0666666666666" as="sourcePoint"/><mxPoint x="380" y="1086" as="targetPoint"/><Array as="points"><mxPoint x="650" y="1345"/></Array></mxGeometry></mxCell><mxCell id="NYYMoiH2fDYC1uSWcf2y-185" value="*" style="edgeLabel;resizable=0;html=1;align=left;verticalAlign=bottom;" parent="NYYMoiH2fDYC1uSWcf2y-184" connectable="0" vertex="1"><mxGeometry x="-1" relative="1" as="geometry"><mxPoint x="-13" y="16" as="offset"/></mxGeometry></mxCell><mxCell id="NYYMoiH2fDYC1uSWcf2y-186" value="*" style="edgeLabel;resizable=0;html=1;align=right;verticalAlign=bottom;" parent="NYYMoiH2fDYC1uSWcf2y-184" connectable="0" vertex="1"><mxGeometry x="1" relative="1" as="geometry"><mxPoint x="9" as="offset"/></mxGeometry></mxCell><mxCell id="NYYMoiH2fDYC1uSWcf2y-188" value="&lt;&lt;interface&gt;&gt;&#10;ICollectionRepository" style="swimlane;fontStyle=0;align=center;verticalAlign=top;childLayout=stackLayout;horizontal=1;startSize=40;horizontalStack=0;resizeParent=1;resizeParentMax=0;resizeLast=0;collapsible=1;marginBottom=0;fontColor=default;" parent="WIyWlLk6GJQsqaUBKTNV-1" vertex="1"><mxGeometry x="1150" y="790" width="510" height="152" as="geometry"/></mxCell><mxCell id="NYYMoiH2fDYC1uSWcf2y-189" value="" style="line;strokeWidth=1;fillColor=none;align=left;verticalAlign=middle;spacingTop=-1;spacingLeft=3;spacingRight=3;rotatable=0;labelPosition=right;points=[];portConstraint=eastwest;strokeColor=inherit;" parent="NYYMoiH2fDYC1uSWcf2y-188" vertex="1"><mxGeometry y="40" width="510" height="8" as="geometry"/></mxCell><mxCell id="NYYMoiH2fDYC1uSWcf2y-190" value="+ { suspend } getCollection(title: String): Result&lt;ZoteroCollection&gt;" style="text;strokeColor=none;fillColor=none;align=left;verticalAlign=top;spacingLeft=4;spacingRight=4;overflow=hidden;rotatable=0;points=[[0,0.5],[1,0.5]];portConstraint=eastwest;" parent="NYYMoiH2fDYC1uSWcf2y-188" vertex="1"><mxGeometry y="48" width="510" height="26" as="geometry"/></mxCell><mxCell id="NYYMoiH2fDYC1uSWcf2y-191" value="+ { suspend } addCollection(item: ZoteroCollection): Result&lt;Nothing&gt;" style="text;strokeColor=none;fillColor=none;align=left;verticalAlign=top;spacingLeft=4;spacingRight=4;overflow=hidden;rotatable=0;points=[[0,0.5],[1,0.5]];portConstraint=eastwest;" parent="NYYMoiH2fDYC1uSWcf2y-188" vertex="1"><mxGeometry y="74" width="510" height="26" as="geometry"/></mxCell><mxCell id="NYYMoiH2fDYC1uSWcf2y-193" value="+ { suspend } deleteCollection(item: ZoteroCollection): Result&lt;Nothing&gt;" style="text;strokeColor=none;fillColor=none;align=left;verticalAlign=top;spacingLeft=4;spacingRight=4;overflow=hidden;rotatable=0;points=[[0,0.5],[1,0.5]];portConstraint=eastwest;" parent="NYYMoiH2fDYC1uSWcf2y-188" vertex="1"><mxGeometry y="100" width="510" height="26" as="geometry"/></mxCell><mxCell id="NYYMoiH2fDYC1uSWcf2y-194" value="+ { suspend } updateCollection(title: String, newCollection: ZoteroCollection): Result&lt;Nothing&gt;" style="text;strokeColor=none;fillColor=none;align=left;verticalAlign=top;spacingLeft=4;spacingRight=4;overflow=hidden;rotatable=0;points=[[0,0.5],[1,0.5]];portConstraint=eastwest;" parent="NYYMoiH2fDYC1uSWcf2y-188" vertex="1"><mxGeometry y="126" width="510" height="26" as="geometry"/></mxCell><mxCell id="NYYMoiH2fDYC1uSWcf2y-195" value="Use" style="endArrow=open;endSize=12;dashed=1;html=1;rounded=0;" parent="WIyWlLk6GJQsqaUBKTNV-1" source="NYYMoiH2fDYC1uSWcf2y-178" target="NYYMoiH2fDYC1uSWcf2y-188" edge="1"><mxGeometry width="160" relative="1" as="geometry"><mxPoint x="1220" y="953.8235294117646" as="sourcePoint"/><mxPoint x="1350.3623188405795" y="848" as="targetPoint"/></mxGeometry></mxCell><mxCell id="NYYMoiH2fDYC1uSWcf2y-196" value="LocalCollectionRepository" style="swimlane;fontStyle=0;align=center;verticalAlign=top;childLayout=stackLayout;horizontal=1;startSize=26;horizontalStack=0;resizeParent=1;resizeLast=0;collapsible=1;marginBottom=0;rounded=0;shadow=0;strokeWidth=1;" parent="WIyWlLk6GJQsqaUBKTNV-1" vertex="1"><mxGeometry x="1720" y="806" width="160" height="120" as="geometry"><mxRectangle x="550" y="140" width="160" height="26" as="alternateBounds"/></mxGeometry></mxCell><mxCell id="NYYMoiH2fDYC1uSWcf2y-197" value="- database: Database" style="text;align=left;verticalAlign=top;spacingLeft=4;spacingRight=4;overflow=hidden;rotatable=0;points=[[0,0.5],[1,0.5]];portConstraint=eastwest;" parent="NYYMoiH2fDYC1uSWcf2y-196" vertex="1"><mxGeometry y="26" width="160" height="26" as="geometry"/></mxCell><mxCell id="NYYMoiH2fDYC1uSWcf2y-198" value="" style="line;html=1;strokeWidth=1;align=left;verticalAlign=middle;spacingTop=-1;spacingLeft=3;spacingRight=3;rotatable=0;labelPosition=right;points=[];portConstraint=eastwest;" parent="NYYMoiH2fDYC1uSWcf2y-196" vertex="1"><mxGeometry y="52" width="160" height="8" as="geometry"/></mxCell><mxCell id="NYYMoiH2fDYC1uSWcf2y-227" value="+ LocalCollectionRepository(&#10;        database: Database&#10;    )" style="text;align=left;verticalAlign=top;spacingLeft=4;spacingRight=4;overflow=hidden;rotatable=0;points=[[0,0.5],[1,0.5]];portConstraint=eastwest;" parent="NYYMoiH2fDYC1uSWcf2y-196" vertex="1"><mxGeometry y="60" width="160" height="60" as="geometry"/></mxCell><mxCell id="NYYMoiH2fDYC1uSWcf2y-202" value="" style="endArrow=block;dashed=1;endFill=0;endSize=12;html=1;rounded=0;" parent="WIyWlLk6GJQsqaUBKTNV-1" source="NYYMoiH2fDYC1uSWcf2y-196" target="NYYMoiH2fDYC1uSWcf2y-188" edge="1"><mxGeometry width="160" relative="1" as="geometry"><mxPoint x="1429.6880530973453" y="1262" as="sourcePoint"/><mxPoint x="1470.3075221238937" y="1160" as="targetPoint"/></mxGeometry></mxCell><mxCell id="NYYMoiH2fDYC1uSWcf2y-204" value="Use" style="endArrow=open;endSize=12;dashed=1;html=1;rounded=0;" parent="WIyWlLk6GJQsqaUBKTNV-1" source="NYYMoiH2fDYC1uSWcf2y-22" target="NYYMoiH2fDYC1uSWcf2y-188" edge="1"><mxGeometry width="160" relative="1" as="geometry"><mxPoint x="1374.7472527472528" y="328" as="sourcePoint"/><mxPoint x="1442.395604395605" y="670" as="targetPoint"/></mxGeometry></mxCell><mxCell id="NYYMoiH2fDYC1uSWcf2y-96" value="&lt;&lt;data class&gt;&gt;&#10;BookRelatedSubData" style="swimlane;fontStyle=0;align=center;verticalAlign=top;childLayout=stackLayout;horizontal=1;startSize=40;horizontalStack=0;resizeParent=1;resizeParentMax=0;resizeLast=0;collapsible=1;marginBottom=0;" parent="WIyWlLk6GJQsqaUBKTNV-1" vertex="1"><mxGeometry x="20" y="1162" width="230" height="366" as="geometry"/></mxCell><mxCell id="NYYMoiH2fDYC1uSWcf2y-111" value="+ series: String { readOnly }" style="text;strokeColor=none;fillColor=none;align=left;verticalAlign=top;spacingLeft=4;spacingRight=4;overflow=hidden;rotatable=0;points=[[0,0.5],[1,0.5]];portConstraint=eastwest;" parent="NYYMoiH2fDYC1uSWcf2y-96" vertex="1"><mxGeometry y="40" width="230" height="26" as="geometry"/></mxCell><mxCell id="NYYMoiH2fDYC1uSWcf2y-113" value="+ seriesNumber: String { readOnly }" style="text;strokeColor=none;fillColor=none;align=left;verticalAlign=top;spacingLeft=4;spacingRight=4;overflow=hidden;rotatable=0;points=[[0,0.5],[1,0.5]];portConstraint=eastwest;" parent="NYYMoiH2fDYC1uSWcf2y-96" vertex="1"><mxGeometry y="66" width="230" height="26" as="geometry"/></mxCell><mxCell id="NYYMoiH2fDYC1uSWcf2y-115" value="+ volume: UInt { readOnly }" style="text;strokeColor=none;fillColor=none;align=left;verticalAlign=top;spacingLeft=4;spacingRight=4;overflow=hidden;rotatable=0;points=[[0,0.5],[1,0.5]];portConstraint=eastwest;" parent="NYYMoiH2fDYC1uSWcf2y-96" vertex="1"><mxGeometry y="92" width="230" height="26" as="geometry"/></mxCell><mxCell id="NYYMoiH2fDYC1uSWcf2y-117" value="+ numberOfVolumes: UInt { readOnly }" style="text;strokeColor=none;fillColor=none;align=left;verticalAlign=top;spacingLeft=4;spacingRight=4;overflow=hidden;rotatable=0;points=[[0,0.5],[1,0.5]];portConstraint=eastwest;" parent="NYYMoiH2fDYC1uSWcf2y-96" vertex="1"><mxGeometry y="118" width="230" height="26" as="geometry"/></mxCell><mxCell id="NYYMoiH2fDYC1uSWcf2y-119" value="+ edition: String { readOnly }" style="text;strokeColor=none;fillColor=none;align=left;verticalAlign=top;spacingLeft=4;spacingRight=4;overflow=hidden;rotatable=0;points=[[0,0.5],[1,0.5]];portConstraint=eastwest;" parent="NYYMoiH2fDYC1uSWcf2y-96" vertex="1"><mxGeometry y="144" width="230" height="26" as="geometry"/></mxCell><mxCell id="NYYMoiH2fDYC1uSWcf2y-121" value="+ place: String { readOnly }" style="text;strokeColor=none;fillColor=none;align=left;verticalAlign=top;spacingLeft=4;spacingRight=4;overflow=hidden;rotatable=0;points=[[0,0.5],[1,0.5]];portConstraint=eastwest;" parent="NYYMoiH2fDYC1uSWcf2y-96" vertex="1"><mxGeometry y="170" width="230" height="26" as="geometry"/></mxCell><mxCell id="149" value="+ itemSubData: ItemSubData { readOnly }" style="text;strokeColor=none;fillColor=none;align=left;verticalAlign=top;spacingLeft=4;spacingRight=4;overflow=hidden;rotatable=0;points=[[0,0.5],[1,0.5]];portConstraint=eastwest;" vertex="1" parent="NYYMoiH2fDYC1uSWcf2y-96"><mxGeometry y="196" width="230" height="26" as="geometry"/></mxCell><mxCell id="NYYMoiH2fDYC1uSWcf2y-98" value="" style="line;strokeWidth=1;fillColor=none;align=left;verticalAlign=middle;spacingTop=-1;spacingLeft=3;spacingRight=3;rotatable=0;labelPosition=right;points=[];portConstraint=eastwest;strokeColor=inherit;" parent="NYYMoiH2fDYC1uSWcf2y-96" vertex="1"><mxGeometry y="222" width="230" height="8" as="geometry"/></mxCell><mxCell id="NYYMoiH2fDYC1uSWcf2y-171" value="+ BookRelatedSubData(&#10;        series: String,&#10;        seriesNumber: String,&#10;        volume: UInt,&#10;        numberOfVolumes: UInt,&#10;        edition: String,&#10;        place: String,&#10;        itemSubData: ItemSubData&#10;    )" style="text;strokeColor=none;fillColor=none;align=left;verticalAlign=top;spacingLeft=4;spacingRight=4;overflow=hidden;rotatable=0;points=[[0,0.5],[1,0.5]];portConstraint=eastwest;" parent="NYYMoiH2fDYC1uSWcf2y-96" vertex="1"><mxGeometry y="230" width="230" height="136" as="geometry"/></mxCell><mxCell id="NYYMoiH2fDYC1uSWcf2y-220" value="LoginComponent" style="swimlane;fontStyle=0;align=center;verticalAlign=top;childLayout=stackLayout;horizontal=1;startSize=26;horizontalStack=0;resizeParent=1;resizeParentMax=0;resizeLast=0;collapsible=1;marginBottom=0;fontColor=default;" parent="WIyWlLk6GJQsqaUBKTNV-1" vertex="1"><mxGeometry x="840" y="300" width="280" height="164" as="geometry"/></mxCell><mxCell id="NYYMoiH2fDYC1uSWcf2y-221" value="+ loginState: LoginState" style="text;strokeColor=none;fillColor=none;align=left;verticalAlign=top;spacingLeft=4;spacingRight=4;overflow=hidden;rotatable=0;points=[[0,0.5],[1,0.5]];portConstraint=eastwest;fontColor=default;" parent="NYYMoiH2fDYC1uSWcf2y-220" vertex="1"><mxGeometry y="26" width="280" height="26" as="geometry"/></mxCell><mxCell id="NYYMoiH2fDYC1uSWcf2y-226" value="- userRepository: IUserRepository { readOnly }" style="text;strokeColor=none;fillColor=none;align=left;verticalAlign=top;spacingLeft=4;spacingRight=4;overflow=hidden;rotatable=0;points=[[0,0.5],[1,0.5]];portConstraint=eastwest;fontColor=default;" parent="NYYMoiH2fDYC1uSWcf2y-220" vertex="1"><mxGeometry y="52" width="280" height="26" as="geometry"/></mxCell><mxCell id="NYYMoiH2fDYC1uSWcf2y-222" value="" style="line;strokeWidth=1;fillColor=none;align=left;verticalAlign=middle;spacingTop=-1;spacingLeft=3;spacingRight=3;rotatable=0;labelPosition=right;points=[];portConstraint=eastwest;strokeColor=inherit;fontColor=default;" parent="NYYMoiH2fDYC1uSWcf2y-220" vertex="1"><mxGeometry y="78" width="280" height="8" as="geometry"/></mxCell><mxCell id="NYYMoiH2fDYC1uSWcf2y-223" value="+ reduce(loginEvent: LoginEvent)" style="text;strokeColor=none;fillColor=none;align=left;verticalAlign=top;spacingLeft=4;spacingRight=4;overflow=hidden;rotatable=0;points=[[0,0.5],[1,0.5]];portConstraint=eastwest;fontColor=default;" parent="NYYMoiH2fDYC1uSWcf2y-220" vertex="1"><mxGeometry y="86" width="280" height="26" as="geometry"/></mxCell><mxCell id="NYYMoiH2fDYC1uSWcf2y-230" value="+ LoginComponent(&#10;        userRepository: IUserRepository&#10;    )" style="text;strokeColor=none;fillColor=none;align=left;verticalAlign=top;spacingLeft=4;spacingRight=4;overflow=hidden;rotatable=0;points=[[0,0.5],[1,0.5]];portConstraint=eastwest;fontColor=default;" parent="NYYMoiH2fDYC1uSWcf2y-220" vertex="1"><mxGeometry y="112" width="280" height="52" as="geometry"/></mxCell><mxCell id="NYYMoiH2fDYC1uSWcf2y-231" value="&lt;&lt;data class&gt;&gt;&#10;LoginState" style="swimlane;fontStyle=0;align=center;verticalAlign=top;childLayout=stackLayout;horizontal=1;startSize=40;horizontalStack=0;resizeParent=1;resizeParentMax=0;resizeLast=0;collapsible=1;marginBottom=0;fontColor=default;" parent="WIyWlLk6GJQsqaUBKTNV-1" vertex="1"><mxGeometry x="1170" y="418" width="220" height="210" as="geometry"/></mxCell><mxCell id="NYYMoiH2fDYC1uSWcf2y-232" value="+ username: String { readOnly }" style="text;strokeColor=none;fillColor=none;align=left;verticalAlign=top;spacingLeft=4;spacingRight=4;overflow=hidden;rotatable=0;points=[[0,0.5],[1,0.5]];portConstraint=eastwest;fontColor=default;" parent="NYYMoiH2fDYC1uSWcf2y-231" vertex="1"><mxGeometry y="40" width="220" height="26" as="geometry"/></mxCell><mxCell id="NYYMoiH2fDYC1uSWcf2y-235" value="+ password: String { readOnly }" style="text;strokeColor=none;fillColor=none;align=left;verticalAlign=top;spacingLeft=4;spacingRight=4;overflow=hidden;rotatable=0;points=[[0,0.5],[1,0.5]];portConstraint=eastwest;fontColor=default;" parent="NYYMoiH2fDYC1uSWcf2y-231" vertex="1"><mxGeometry y="66" width="220" height="26" as="geometry"/></mxCell><mxCell id="NYYMoiH2fDYC1uSWcf2y-236" value="+ rememberUser: Boolean { readOnly }" style="text;strokeColor=none;fillColor=none;align=left;verticalAlign=top;spacingLeft=4;spacingRight=4;overflow=hidden;rotatable=0;points=[[0,0.5],[1,0.5]];portConstraint=eastwest;fontColor=default;" parent="NYYMoiH2fDYC1uSWcf2y-231" vertex="1"><mxGeometry y="92" width="220" height="26" as="geometry"/></mxCell><mxCell id="NYYMoiH2fDYC1uSWcf2y-233" value="" style="line;strokeWidth=1;fillColor=none;align=left;verticalAlign=middle;spacingTop=-1;spacingLeft=3;spacingRight=3;rotatable=0;labelPosition=right;points=[];portConstraint=eastwest;strokeColor=inherit;fontColor=default;" parent="NYYMoiH2fDYC1uSWcf2y-231" vertex="1"><mxGeometry y="118" width="220" height="8" as="geometry"/></mxCell><mxCell id="NYYMoiH2fDYC1uSWcf2y-234" value="+ LoginState(&#10;        username: String = &quot;&quot;,&#10;        password: String = &quot;&quot;,&#10;        rememberUser: Boolean = false&#10;)" style="text;strokeColor=none;fillColor=none;align=left;verticalAlign=top;spacingLeft=4;spacingRight=4;overflow=hidden;rotatable=0;points=[[0,0.5],[1,0.5]];portConstraint=eastwest;fontColor=default;" parent="NYYMoiH2fDYC1uSWcf2y-231" vertex="1"><mxGeometry y="126" width="220" height="84" as="geometry"/></mxCell><mxCell id="NYYMoiH2fDYC1uSWcf2y-237" value="1" style="endArrow=open;html=1;endSize=12;startArrow=diamondThin;startSize=14;startFill=0;edgeStyle=orthogonalEdgeStyle;align=left;verticalAlign=bottom;rounded=0;fontColor=default;" parent="WIyWlLk6GJQsqaUBKTNV-1" source="NYYMoiH2fDYC1uSWcf2y-220" target="NYYMoiH2fDYC1uSWcf2y-2" edge="1"><mxGeometry x="-0.8907" y="-15" relative="1" as="geometry"><mxPoint x="1360" y="300" as="sourcePoint"/><mxPoint x="1520" y="300" as="targetPoint"/><mxPoint as="offset"/></mxGeometry></mxCell><mxCell id="NYYMoiH2fDYC1uSWcf2y-238" value="1" style="endArrow=open;html=1;endSize=12;startArrow=diamondThin;startSize=14;startFill=1;edgeStyle=orthogonalEdgeStyle;align=left;verticalAlign=bottom;rounded=0;fontColor=default;" parent="WIyWlLk6GJQsqaUBKTNV-1" source="NYYMoiH2fDYC1uSWcf2y-220" target="NYYMoiH2fDYC1uSWcf2y-231" edge="1"><mxGeometry x="-1" y="3" relative="1" as="geometry"><mxPoint x="1400" y="250" as="sourcePoint"/><mxPoint x="1560" y="250" as="targetPoint"/></mxGeometry></mxCell><mxCell id="NYYMoiH2fDYC1uSWcf2y-239" value="&lt;&lt;sealed interface&gt;&gt;&#10;LoginEvent    " style="swimlane;fontStyle=0;align=center;verticalAlign=top;childLayout=stackLayout;horizontal=1;startSize=40;horizontalStack=0;resizeParent=1;resizeParentMax=0;resizeLast=0;collapsible=1;marginBottom=0;fontColor=default;" parent="WIyWlLk6GJQsqaUBKTNV-1" vertex="1"><mxGeometry x="1600" y="290" width="160" height="48" as="geometry"/></mxCell><mxCell id="NYYMoiH2fDYC1uSWcf2y-241" value="" style="line;strokeWidth=1;fillColor=none;align=left;verticalAlign=middle;spacingTop=-1;spacingLeft=3;spacingRight=3;rotatable=0;labelPosition=right;points=[];portConstraint=eastwest;strokeColor=inherit;fontColor=default;" parent="NYYMoiH2fDYC1uSWcf2y-239" vertex="1"><mxGeometry y="40" width="160" height="8" as="geometry"/></mxCell><mxCell id="NYYMoiH2fDYC1uSWcf2y-243" value="&lt;&lt;value class&gt;&gt;&#10;UsernameChangeLoginEvent" style="swimlane;fontStyle=0;align=center;verticalAlign=top;childLayout=stackLayout;horizontal=1;startSize=40;horizontalStack=0;resizeParent=1;resizeParentMax=0;resizeLast=0;collapsible=1;marginBottom=0;fontColor=default;" parent="WIyWlLk6GJQsqaUBKTNV-1" vertex="1"><mxGeometry x="1400" y="340" width="190" height="124" as="geometry"/></mxCell><mxCell id="NYYMoiH2fDYC1uSWcf2y-244" value="+ username: String { readOnly }" style="text;strokeColor=none;fillColor=none;align=left;verticalAlign=top;spacingLeft=4;spacingRight=4;overflow=hidden;rotatable=0;points=[[0,0.5],[1,0.5]];portConstraint=eastwest;fontColor=default;" parent="NYYMoiH2fDYC1uSWcf2y-243" vertex="1"><mxGeometry y="40" width="190" height="26" as="geometry"/></mxCell><mxCell id="NYYMoiH2fDYC1uSWcf2y-245" value="" style="line;strokeWidth=1;fillColor=none;align=left;verticalAlign=middle;spacingTop=-1;spacingLeft=3;spacingRight=3;rotatable=0;labelPosition=right;points=[];portConstraint=eastwest;strokeColor=inherit;fontColor=default;" parent="NYYMoiH2fDYC1uSWcf2y-243" vertex="1"><mxGeometry y="66" width="190" height="8" as="geometry"/></mxCell><mxCell id="NYYMoiH2fDYC1uSWcf2y-246" value="+ UsernameChangeLoginEvent(&#10;        username: String&#10;    )" style="text;strokeColor=none;fillColor=none;align=left;verticalAlign=top;spacingLeft=4;spacingRight=4;overflow=hidden;rotatable=0;points=[[0,0.5],[1,0.5]];portConstraint=eastwest;fontColor=default;" parent="NYYMoiH2fDYC1uSWcf2y-243" vertex="1"><mxGeometry y="74" width="190" height="50" as="geometry"/></mxCell><mxCell id="NYYMoiH2fDYC1uSWcf2y-248" value="Extends" style="endArrow=block;endSize=16;endFill=0;html=1;rounded=0;fontColor=default;" parent="WIyWlLk6GJQsqaUBKTNV-1" source="NYYMoiH2fDYC1uSWcf2y-243" target="NYYMoiH2fDYC1uSWcf2y-239" edge="1"><mxGeometry width="160" relative="1" as="geometry"><mxPoint x="1550" y="400" as="sourcePoint"/><mxPoint x="1710" y="400" as="targetPoint"/></mxGeometry></mxCell><mxCell id="NYYMoiH2fDYC1uSWcf2y-249" value="&lt;&lt;value class&gt;&gt;&#10;PasswordChangeLoginEvent" style="swimlane;fontStyle=0;align=center;verticalAlign=top;childLayout=stackLayout;horizontal=1;startSize=40;horizontalStack=0;resizeParent=1;resizeParentMax=0;resizeLast=0;collapsible=1;marginBottom=0;fontColor=default;" parent="WIyWlLk6GJQsqaUBKTNV-1" vertex="1"><mxGeometry x="1800" y="377" width="190" height="124" as="geometry"/></mxCell><mxCell id="NYYMoiH2fDYC1uSWcf2y-250" value="+ password: String { readOnly }" style="text;strokeColor=none;fillColor=none;align=left;verticalAlign=top;spacingLeft=4;spacingRight=4;overflow=hidden;rotatable=0;points=[[0,0.5],[1,0.5]];portConstraint=eastwest;fontColor=default;" parent="NYYMoiH2fDYC1uSWcf2y-249" vertex="1"><mxGeometry y="40" width="190" height="26" as="geometry"/></mxCell><mxCell id="NYYMoiH2fDYC1uSWcf2y-251" value="" style="line;strokeWidth=1;fillColor=none;align=left;verticalAlign=middle;spacingTop=-1;spacingLeft=3;spacingRight=3;rotatable=0;labelPosition=right;points=[];portConstraint=eastwest;strokeColor=inherit;fontColor=default;" parent="NYYMoiH2fDYC1uSWcf2y-249" vertex="1"><mxGeometry y="66" width="190" height="8" as="geometry"/></mxCell><mxCell id="NYYMoiH2fDYC1uSWcf2y-252" value="+ PasswordChangeLoginEvent(&#10;        password: String&#10;    )" style="text;strokeColor=none;fillColor=none;align=left;verticalAlign=top;spacingLeft=4;spacingRight=4;overflow=hidden;rotatable=0;points=[[0,0.5],[1,0.5]];portConstraint=eastwest;fontColor=default;" parent="NYYMoiH2fDYC1uSWcf2y-249" vertex="1"><mxGeometry y="74" width="190" height="50" as="geometry"/></mxCell><mxCell id="NYYMoiH2fDYC1uSWcf2y-253" value="Extends" style="endArrow=block;endSize=16;endFill=0;html=1;rounded=0;fontColor=default;" parent="WIyWlLk6GJQsqaUBKTNV-1" source="NYYMoiH2fDYC1uSWcf2y-249" target="NYYMoiH2fDYC1uSWcf2y-239" edge="1"><mxGeometry width="160" relative="1" as="geometry"><mxPoint x="1644.2857142857142" y="479.9999999999999" as="sourcePoint"/><mxPoint x="1702.8571428571427" y="398" as="targetPoint"/></mxGeometry></mxCell><mxCell id="NYYMoiH2fDYC1uSWcf2y-254" value="&lt;&lt;value class&gt;&gt;&#10;RememberUserTogledLoginEvent" style="swimlane;fontStyle=0;align=center;verticalAlign=top;childLayout=stackLayout;horizontal=1;startSize=40;horizontalStack=0;resizeParent=1;resizeParentMax=0;resizeLast=0;collapsible=1;marginBottom=0;fontColor=default;" parent="WIyWlLk6GJQsqaUBKTNV-1" vertex="1"><mxGeometry x="1400" y="490" width="220" height="124" as="geometry"/></mxCell><mxCell id="NYYMoiH2fDYC1uSWcf2y-255" value="+ rememberUser: Boolean { readOnly }" style="text;strokeColor=none;fillColor=none;align=left;verticalAlign=top;spacingLeft=4;spacingRight=4;overflow=hidden;rotatable=0;points=[[0,0.5],[1,0.5]];portConstraint=eastwest;fontColor=default;" parent="NYYMoiH2fDYC1uSWcf2y-254" vertex="1"><mxGeometry y="40" width="220" height="26" as="geometry"/></mxCell><mxCell id="NYYMoiH2fDYC1uSWcf2y-256" value="" style="line;strokeWidth=1;fillColor=none;align=left;verticalAlign=middle;spacingTop=-1;spacingLeft=3;spacingRight=3;rotatable=0;labelPosition=right;points=[];portConstraint=eastwest;strokeColor=inherit;fontColor=default;" parent="NYYMoiH2fDYC1uSWcf2y-254" vertex="1"><mxGeometry y="66" width="220" height="8" as="geometry"/></mxCell><mxCell id="NYYMoiH2fDYC1uSWcf2y-257" value="+ RememberUserTogledLoginEvent(&#10;        rememberUser: Boolean&#10;    )" style="text;strokeColor=none;fillColor=none;align=left;verticalAlign=top;spacingLeft=4;spacingRight=4;overflow=hidden;rotatable=0;points=[[0,0.5],[1,0.5]];portConstraint=eastwest;fontColor=default;" parent="NYYMoiH2fDYC1uSWcf2y-254" vertex="1"><mxGeometry y="74" width="220" height="50" as="geometry"/></mxCell><mxCell id="NYYMoiH2fDYC1uSWcf2y-258" value="Extends" style="endArrow=block;endSize=16;endFill=0;html=1;rounded=0;fontColor=default;" parent="WIyWlLk6GJQsqaUBKTNV-1" source="NYYMoiH2fDYC1uSWcf2y-254" target="NYYMoiH2fDYC1uSWcf2y-239" edge="1"><mxGeometry width="160" relative="1" as="geometry"><mxPoint x="1644.2857142857142" y="479.9999999999999" as="sourcePoint"/><mxPoint x="1702.8571428571427" y="398" as="targetPoint"/><Array as="points"><mxPoint x="1640" y="460"/></Array></mxGeometry></mxCell><mxCell id="NYYMoiH2fDYC1uSWcf2y-259" value="&lt;&lt;singletone&gt;&gt; &#10;LoginButtonClickLoginEvent" style="swimlane;fontStyle=0;align=center;verticalAlign=top;childLayout=stackLayout;horizontal=1;startSize=40;horizontalStack=0;resizeParent=1;resizeParentMax=0;resizeLast=0;collapsible=1;marginBottom=0;fontColor=default;" parent="WIyWlLk6GJQsqaUBKTNV-1" vertex="1"><mxGeometry x="1730" y="548" width="220" height="74" as="geometry"/></mxCell><mxCell id="NYYMoiH2fDYC1uSWcf2y-261" value="" style="line;strokeWidth=1;fillColor=none;align=left;verticalAlign=middle;spacingTop=-1;spacingLeft=3;spacingRight=3;rotatable=0;labelPosition=right;points=[];portConstraint=eastwest;strokeColor=inherit;fontColor=default;" parent="NYYMoiH2fDYC1uSWcf2y-259" vertex="1"><mxGeometry y="40" width="220" height="8" as="geometry"/></mxCell><mxCell id="NYYMoiH2fDYC1uSWcf2y-262" value="+ LoginButtonClickLoginEvent()" style="text;strokeColor=none;fillColor=none;align=left;verticalAlign=top;spacingLeft=4;spacingRight=4;overflow=hidden;rotatable=0;points=[[0,0.5],[1,0.5]];portConstraint=eastwest;fontColor=default;" parent="NYYMoiH2fDYC1uSWcf2y-259" vertex="1"><mxGeometry y="48" width="220" height="26" as="geometry"/></mxCell><mxCell id="NYYMoiH2fDYC1uSWcf2y-263" value="Extends" style="endArrow=block;endSize=16;endFill=0;html=1;rounded=0;fontColor=default;" parent="WIyWlLk6GJQsqaUBKTNV-1" source="NYYMoiH2fDYC1uSWcf2y-259" target="NYYMoiH2fDYC1uSWcf2y-239" edge="1"><mxGeometry width="160" relative="1" as="geometry"><mxPoint x="1628.965517241379" y="638" as="sourcePoint"/><mxPoint x="1711.7241379310344" y="398" as="targetPoint"/></mxGeometry></mxCell><mxCell id="NYYMoiH2fDYC1uSWcf2y-264" value="MainComponent" style="swimlane;fontStyle=0;align=center;verticalAlign=top;childLayout=stackLayout;horizontal=1;startSize=26;horizontalStack=0;resizeParent=1;resizeParentMax=0;resizeLast=0;collapsible=1;marginBottom=0;fontColor=default;" parent="WIyWlLk6GJQsqaUBKTNV-1" vertex="1"><mxGeometry x="1220" y="1120" width="320" height="240" as="geometry"/></mxCell><mxCell id="NYYMoiH2fDYC1uSWcf2y-265" value="+ mainState: MainState" style="text;strokeColor=none;fillColor=none;align=left;verticalAlign=top;spacingLeft=4;spacingRight=4;overflow=hidden;rotatable=0;points=[[0,0.5],[1,0.5]];portConstraint=eastwest;fontColor=default;" parent="NYYMoiH2fDYC1uSWcf2y-264" vertex="1"><mxGeometry y="26" width="320" height="26" as="geometry"/></mxCell><mxCell id="NYYMoiH2fDYC1uSWcf2y-267" value="- collectionRepository: ICollectionRepository{ readOnly }" style="text;strokeColor=none;fillColor=none;align=left;verticalAlign=top;spacingLeft=4;spacingRight=4;overflow=hidden;rotatable=0;points=[[0,0.5],[1,0.5]];portConstraint=eastwest;fontColor=default;" parent="NYYMoiH2fDYC1uSWcf2y-264" vertex="1"><mxGeometry y="52" width="320" height="26" as="geometry"/></mxCell><mxCell id="NYYMoiH2fDYC1uSWcf2y-271" value="- itemRepository: IItemRepository { readOnly }&#10;" style="text;strokeColor=none;fillColor=none;align=left;verticalAlign=top;spacingLeft=4;spacingRight=4;overflow=hidden;rotatable=0;points=[[0,0.5],[1,0.5]];portConstraint=eastwest;fontColor=default;" parent="NYYMoiH2fDYC1uSWcf2y-264" vertex="1"><mxGeometry y="78" width="320" height="26" as="geometry"/></mxCell><mxCell id="NYYMoiH2fDYC1uSWcf2y-281" value="- syncRepository: ISyncRepository { readOnly }" style="text;strokeColor=none;fillColor=none;align=left;verticalAlign=top;spacingLeft=4;spacingRight=4;overflow=hidden;rotatable=0;points=[[0,0.5],[1,0.5]];portConstraint=eastwest;fontColor=default;" parent="NYYMoiH2fDYC1uSWcf2y-264" vertex="1"><mxGeometry y="104" width="320" height="26" as="geometry"/></mxCell><mxCell id="NYYMoiH2fDYC1uSWcf2y-268" value="" style="line;strokeWidth=1;fillColor=none;align=left;verticalAlign=middle;spacingTop=-1;spacingLeft=3;spacingRight=3;rotatable=0;labelPosition=right;points=[];portConstraint=eastwest;strokeColor=inherit;fontColor=default;" parent="NYYMoiH2fDYC1uSWcf2y-264" vertex="1"><mxGeometry y="130" width="320" height="8" as="geometry"/></mxCell><mxCell id="NYYMoiH2fDYC1uSWcf2y-269" value="+ reduce(mainEvent: MainEvent)" style="text;strokeColor=none;fillColor=none;align=left;verticalAlign=top;spacingLeft=4;spacingRight=4;overflow=hidden;rotatable=0;points=[[0,0.5],[1,0.5]];portConstraint=eastwest;fontColor=default;" parent="NYYMoiH2fDYC1uSWcf2y-264" vertex="1"><mxGeometry y="138" width="320" height="26" as="geometry"/></mxCell><mxCell id="NYYMoiH2fDYC1uSWcf2y-270" value="+ LoginComponent(&#10;        collectionRepository: ICollectionRepository,&#10;        itemRepository: IItemRepository,&#10;        syncRepository: ISyncRepository&#10;    )" style="text;strokeColor=none;fillColor=none;align=left;verticalAlign=top;spacingLeft=4;spacingRight=4;overflow=hidden;rotatable=0;points=[[0,0.5],[1,0.5]];portConstraint=eastwest;fontColor=default;" parent="NYYMoiH2fDYC1uSWcf2y-264" vertex="1"><mxGeometry y="164" width="320" height="76" as="geometry"/></mxCell><mxCell id="NYYMoiH2fDYC1uSWcf2y-273" value="1" style="endArrow=open;html=1;endSize=12;startArrow=diamondThin;startSize=14;startFill=0;edgeStyle=orthogonalEdgeStyle;align=left;verticalAlign=bottom;rounded=0;fontColor=default;" parent="WIyWlLk6GJQsqaUBKTNV-1" source="NYYMoiH2fDYC1uSWcf2y-264" target="NYYMoiH2fDYC1uSWcf2y-141" edge="1"><mxGeometry x="-0.8907" y="-15" relative="1" as="geometry"><mxPoint x="1160" y="355" as="sourcePoint"/><mxPoint x="1070" y="268" as="targetPoint"/><mxPoint as="offset"/><Array as="points"><mxPoint x="1020" y="1253"/></Array></mxGeometry></mxCell><mxCell id="NYYMoiH2fDYC1uSWcf2y-274" value="1" style="endArrow=open;html=1;endSize=12;startArrow=diamondThin;startSize=14;startFill=0;edgeStyle=orthogonalEdgeStyle;align=left;verticalAlign=bottom;rounded=0;fontColor=default;" parent="WIyWlLk6GJQsqaUBKTNV-1" source="NYYMoiH2fDYC1uSWcf2y-264" target="NYYMoiH2fDYC1uSWcf2y-188" edge="1"><mxGeometry x="-0.8907" y="-15" relative="1" as="geometry"><mxPoint x="1270" y="1240.0000000000005" as="sourcePoint"/><mxPoint x="915" y="1037.9999999999998" as="targetPoint"/><mxPoint as="offset"/><Array as="points"><mxPoint x="1405" y="1070"/><mxPoint x="1405" y="1070"/></Array></mxGeometry></mxCell><mxCell id="NYYMoiH2fDYC1uSWcf2y-275" value="MainState" style="swimlane;fontStyle=0;align=center;verticalAlign=top;childLayout=stackLayout;horizontal=1;startSize=26;horizontalStack=0;resizeParent=1;resizeParentMax=0;resizeLast=0;collapsible=1;marginBottom=0;fontColor=default;" parent="WIyWlLk6GJQsqaUBKTNV-1" vertex="1"><mxGeometry x="1600" y="1120" width="210" height="86" as="geometry"/></mxCell><mxCell id="NYYMoiH2fDYC1uSWcf2y-276" value="+ collections: List&lt;ZoteroCollection&gt;" style="text;strokeColor=none;fillColor=none;align=left;verticalAlign=top;spacingLeft=4;spacingRight=4;overflow=hidden;rotatable=0;points=[[0,0.5],[1,0.5]];portConstraint=eastwest;fontColor=default;" parent="NYYMoiH2fDYC1uSWcf2y-275" vertex="1"><mxGeometry y="26" width="210" height="26" as="geometry"/></mxCell><mxCell id="NYYMoiH2fDYC1uSWcf2y-279" value="" style="line;strokeWidth=1;fillColor=none;align=left;verticalAlign=middle;spacingTop=-1;spacingLeft=3;spacingRight=3;rotatable=0;labelPosition=right;points=[];portConstraint=eastwest;strokeColor=inherit;fontColor=default;" parent="NYYMoiH2fDYC1uSWcf2y-275" vertex="1"><mxGeometry y="52" width="210" height="8" as="geometry"/></mxCell><mxCell id="NYYMoiH2fDYC1uSWcf2y-280" value="+ MainState()" style="text;strokeColor=none;fillColor=none;align=left;verticalAlign=top;spacingLeft=4;spacingRight=4;overflow=hidden;rotatable=0;points=[[0,0.5],[1,0.5]];portConstraint=eastwest;fontColor=default;" parent="NYYMoiH2fDYC1uSWcf2y-275" vertex="1"><mxGeometry y="60" width="210" height="26" as="geometry"/></mxCell><mxCell id="NYYMoiH2fDYC1uSWcf2y-282" value="&lt;&lt;interface&gt;&gt;&#10;ISyncRepository" style="swimlane;fontStyle=0;align=center;verticalAlign=top;childLayout=stackLayout;horizontal=1;startSize=40;horizontalStack=0;resizeParent=1;resizeParentMax=0;resizeLast=0;collapsible=1;marginBottom=0;fontColor=default;" parent="WIyWlLk6GJQsqaUBKTNV-1" vertex="1"><mxGeometry x="1530" y="1450" width="260" height="74" as="geometry"/></mxCell><mxCell id="NYYMoiH2fDYC1uSWcf2y-283" value="" style="line;strokeWidth=1;fillColor=none;align=left;verticalAlign=middle;spacingTop=-1;spacingLeft=3;spacingRight=3;rotatable=0;labelPosition=right;points=[];portConstraint=eastwest;strokeColor=inherit;" parent="NYYMoiH2fDYC1uSWcf2y-282" vertex="1"><mxGeometry y="40" width="260" height="8" as="geometry"/></mxCell><mxCell id="NYYMoiH2fDYC1uSWcf2y-288" value="+ { suspend } syncLibrary(): Result&lt;Nothing&gt;" style="text;strokeColor=none;fillColor=none;align=left;verticalAlign=top;spacingLeft=4;spacingRight=4;overflow=hidden;rotatable=0;points=[[0,0.5],[1,0.5]];portConstraint=eastwest;" parent="NYYMoiH2fDYC1uSWcf2y-282" vertex="1"><mxGeometry y="48" width="260" height="26" as="geometry"/></mxCell><mxCell id="NYYMoiH2fDYC1uSWcf2y-289" value="SyncRepository" style="swimlane;fontStyle=0;align=center;verticalAlign=top;childLayout=stackLayout;horizontal=1;startSize=26;horizontalStack=0;resizeParent=1;resizeLast=0;collapsible=1;marginBottom=0;rounded=0;shadow=0;strokeWidth=1;" parent="WIyWlLk6GJQsqaUBKTNV-1" vertex="1"><mxGeometry x="1650" y="1240" width="160" height="160" as="geometry"><mxRectangle x="550" y="140" width="160" height="26" as="alternateBounds"/></mxGeometry></mxCell><mxCell id="NYYMoiH2fDYC1uSWcf2y-290" value="- database: Database" style="text;align=left;verticalAlign=top;spacingLeft=4;spacingRight=4;overflow=hidden;rotatable=0;points=[[0,0.5],[1,0.5]];portConstraint=eastwest;" parent="NYYMoiH2fDYC1uSWcf2y-289" vertex="1"><mxGeometry y="26" width="160" height="26" as="geometry"/></mxCell><mxCell id="NYYMoiH2fDYC1uSWcf2y-293" value="- client: HttpClient" style="text;align=left;verticalAlign=top;spacingLeft=4;spacingRight=4;overflow=hidden;rotatable=0;points=[[0,0.5],[1,0.5]];portConstraint=eastwest;" parent="NYYMoiH2fDYC1uSWcf2y-289" vertex="1"><mxGeometry y="52" width="160" height="26" as="geometry"/></mxCell><mxCell id="NYYMoiH2fDYC1uSWcf2y-291" value="" style="line;html=1;strokeWidth=1;align=left;verticalAlign=middle;spacingTop=-1;spacingLeft=3;spacingRight=3;rotatable=0;labelPosition=right;points=[];portConstraint=eastwest;" parent="NYYMoiH2fDYC1uSWcf2y-289" vertex="1"><mxGeometry y="78" width="160" height="10" as="geometry"/></mxCell><mxCell id="NYYMoiH2fDYC1uSWcf2y-292" value="+ SyncRepository(&#10;        database: Database,&#10;        client: HttpClient&#10;    )" style="text;align=left;verticalAlign=top;spacingLeft=4;spacingRight=4;overflow=hidden;rotatable=0;points=[[0,0.5],[1,0.5]];portConstraint=eastwest;" parent="NYYMoiH2fDYC1uSWcf2y-289" vertex="1"><mxGeometry y="88" width="160" height="72" as="geometry"/></mxCell><mxCell id="NYYMoiH2fDYC1uSWcf2y-294" value="" style="endArrow=block;dashed=1;endFill=0;endSize=12;html=1;rounded=0;" parent="WIyWlLk6GJQsqaUBKTNV-1" source="NYYMoiH2fDYC1uSWcf2y-289" target="NYYMoiH2fDYC1uSWcf2y-282" edge="1"><mxGeometry width="160" relative="1" as="geometry"><mxPoint x="980.3125" y="1070" as="sourcePoint"/><mxPoint x="963.0397727272727" y="1038" as="targetPoint"/></mxGeometry></mxCell><mxCell id="NYYMoiH2fDYC1uSWcf2y-295" value="1" style="endArrow=open;html=1;endSize=12;startArrow=diamondThin;startSize=14;startFill=0;edgeStyle=orthogonalEdgeStyle;align=left;verticalAlign=bottom;rounded=0;fontColor=default;" parent="WIyWlLk6GJQsqaUBKTNV-1" source="NYYMoiH2fDYC1uSWcf2y-270" target="NYYMoiH2fDYC1uSWcf2y-282" edge="1"><mxGeometry x="-0.8907" y="-15" relative="1" as="geometry"><mxPoint x="1230" y="1263.0000000000002" as="sourcePoint"/><mxPoint x="915" y="1038" as="targetPoint"/><mxPoint as="offset"/></mxGeometry></mxCell><mxCell id="NYYMoiH2fDYC1uSWcf2y-296" value="1" style="endArrow=open;html=1;endSize=12;startArrow=diamondThin;startSize=14;startFill=1;edgeStyle=orthogonalEdgeStyle;align=left;verticalAlign=bottom;rounded=0;fontColor=default;" parent="WIyWlLk6GJQsqaUBKTNV-1" source="NYYMoiH2fDYC1uSWcf2y-264" target="NYYMoiH2fDYC1uSWcf2y-275" edge="1"><mxGeometry x="-1" y="3" relative="1" as="geometry"><mxPoint x="1620" y="1340" as="sourcePoint"/><mxPoint x="1820" y="1359.0526315789475" as="targetPoint"/></mxGeometry></mxCell><mxCell id="NYYMoiH2fDYC1uSWcf2y-297" value="&lt;&lt;interface class&gt;&gt;&#10;MainEvent    " style="swimlane;fontStyle=0;align=center;verticalAlign=top;childLayout=stackLayout;horizontal=1;startSize=40;horizontalStack=0;resizeParent=1;resizeParentMax=0;resizeLast=0;collapsible=1;marginBottom=0;fontColor=default;" parent="WIyWlLk6GJQsqaUBKTNV-1" vertex="1"><mxGeometry x="1025" y="1463" width="160" height="48" as="geometry"/></mxCell><mxCell id="NYYMoiH2fDYC1uSWcf2y-298" value="" style="line;strokeWidth=1;fillColor=none;align=left;verticalAlign=middle;spacingTop=-1;spacingLeft=3;spacingRight=3;rotatable=0;labelPosition=right;points=[];portConstraint=eastwest;strokeColor=inherit;fontColor=default;" parent="NYYMoiH2fDYC1uSWcf2y-297" vertex="1"><mxGeometry y="40" width="160" height="8" as="geometry"/></mxCell><mxCell id="NYYMoiH2fDYC1uSWcf2y-299" value="&lt;&lt;singletone&gt;&gt;&#10; SyncLibraryMainEvent" style="swimlane;fontStyle=0;align=center;verticalAlign=top;childLayout=stackLayout;horizontal=1;startSize=40;horizontalStack=0;resizeParent=1;resizeParentMax=0;resizeLast=0;collapsible=1;marginBottom=0;fontColor=default;" parent="WIyWlLk6GJQsqaUBKTNV-1" vertex="1"><mxGeometry x="719" y="1440" width="220" height="74" as="geometry"/></mxCell><mxCell id="NYYMoiH2fDYC1uSWcf2y-301" value="" style="line;strokeWidth=1;fillColor=none;align=left;verticalAlign=middle;spacingTop=-1;spacingLeft=3;spacingRight=3;rotatable=0;labelPosition=right;points=[];portConstraint=eastwest;strokeColor=inherit;fontColor=default;" parent="NYYMoiH2fDYC1uSWcf2y-299" vertex="1"><mxGeometry y="40" width="220" height="8" as="geometry"/></mxCell><mxCell id="NYYMoiH2fDYC1uSWcf2y-302" value="+ SyncLibraryMainEvent()" style="text;strokeColor=none;fillColor=none;align=left;verticalAlign=top;spacingLeft=4;spacingRight=4;overflow=hidden;rotatable=0;points=[[0,0.5],[1,0.5]];portConstraint=eastwest;fontColor=default;" parent="NYYMoiH2fDYC1uSWcf2y-299" vertex="1"><mxGeometry y="48" width="220" height="26" as="geometry"/></mxCell><mxCell id="NYYMoiH2fDYC1uSWcf2y-304" value="&lt;&lt;value class&gt;&gt;&#10;AddCollectionMainEvent" style="swimlane;fontStyle=0;align=center;verticalAlign=top;childLayout=stackLayout;horizontal=1;startSize=42;horizontalStack=0;resizeParent=1;resizeParentMax=0;resizeLast=0;collapsible=1;marginBottom=0;fontColor=default;" parent="WIyWlLk6GJQsqaUBKTNV-1" vertex="1"><mxGeometry x="719" y="1528" width="220" height="102" as="geometry"/></mxCell><mxCell id="NYYMoiH2fDYC1uSWcf2y-307" value="+ title: String { readOnly }" style="text;strokeColor=none;fillColor=none;align=left;verticalAlign=top;spacingLeft=4;spacingRight=4;overflow=hidden;rotatable=0;points=[[0,0.5],[1,0.5]];portConstraint=eastwest;fontColor=default;" parent="NYYMoiH2fDYC1uSWcf2y-304" vertex="1"><mxGeometry y="42" width="220" height="26" as="geometry"/></mxCell><mxCell id="NYYMoiH2fDYC1uSWcf2y-305" value="" style="line;strokeWidth=1;fillColor=none;align=left;verticalAlign=middle;spacingTop=-1;spacingLeft=3;spacingRight=3;rotatable=0;labelPosition=right;points=[];portConstraint=eastwest;strokeColor=inherit;fontColor=default;" parent="NYYMoiH2fDYC1uSWcf2y-304" vertex="1"><mxGeometry y="68" width="220" height="8" as="geometry"/></mxCell><mxCell id="NYYMoiH2fDYC1uSWcf2y-306" value="+ AddCollectionMainEvent(title: String)" style="text;strokeColor=none;fillColor=none;align=left;verticalAlign=top;spacingLeft=4;spacingRight=4;overflow=hidden;rotatable=0;points=[[0,0.5],[1,0.5]];portConstraint=eastwest;fontColor=default;" parent="NYYMoiH2fDYC1uSWcf2y-304" vertex="1"><mxGeometry y="76" width="220" height="26" as="geometry"/></mxCell><mxCell id="NYYMoiH2fDYC1uSWcf2y-310" value="&lt;&lt;data class&gt;&gt;&#10;RenameCollectionMainEvent" style="swimlane;fontStyle=0;align=center;verticalAlign=top;childLayout=stackLayout;horizontal=1;startSize=40;horizontalStack=0;resizeParent=1;resizeParentMax=0;resizeLast=0;collapsible=1;marginBottom=0;fontColor=default;" parent="WIyWlLk6GJQsqaUBKTNV-1" vertex="1"><mxGeometry x="719" y="1640" width="190" height="164" as="geometry"/></mxCell><mxCell id="NYYMoiH2fDYC1uSWcf2y-311" value="+ title: String { readOnly }" style="text;strokeColor=none;fillColor=none;align=left;verticalAlign=top;spacingLeft=4;spacingRight=4;overflow=hidden;rotatable=0;points=[[0,0.5],[1,0.5]];portConstraint=eastwest;fontColor=default;" parent="NYYMoiH2fDYC1uSWcf2y-310" vertex="1"><mxGeometry y="40" width="190" height="26" as="geometry"/></mxCell><mxCell id="NYYMoiH2fDYC1uSWcf2y-314" value="+ newTitle: String { readOnly }" style="text;strokeColor=none;fillColor=none;align=left;verticalAlign=top;spacingLeft=4;spacingRight=4;overflow=hidden;rotatable=0;points=[[0,0.5],[1,0.5]];portConstraint=eastwest;fontColor=default;" parent="NYYMoiH2fDYC1uSWcf2y-310" vertex="1"><mxGeometry y="66" width="190" height="26" as="geometry"/></mxCell><mxCell id="NYYMoiH2fDYC1uSWcf2y-312" value="" style="line;strokeWidth=1;fillColor=none;align=left;verticalAlign=middle;spacingTop=-1;spacingLeft=3;spacingRight=3;rotatable=0;labelPosition=right;points=[];portConstraint=eastwest;strokeColor=inherit;fontColor=default;" parent="NYYMoiH2fDYC1uSWcf2y-310" vertex="1"><mxGeometry y="92" width="190" height="8" as="geometry"/></mxCell><mxCell id="NYYMoiH2fDYC1uSWcf2y-313" value="+ AddCollectionMainEvent(&#10;        title: String,&#10;        newTitle: String&#10;    )" style="text;strokeColor=none;fillColor=none;align=left;verticalAlign=top;spacingLeft=4;spacingRight=4;overflow=hidden;rotatable=0;points=[[0,0.5],[1,0.5]];portConstraint=eastwest;fontColor=default;" parent="NYYMoiH2fDYC1uSWcf2y-310" vertex="1"><mxGeometry y="100" width="190" height="64" as="geometry"/></mxCell><mxCell id="NYYMoiH2fDYC1uSWcf2y-316" value="&lt;&lt;value class&gt;&gt;&#10;DeleteCollectionMainEvent" style="swimlane;fontStyle=0;align=center;verticalAlign=top;childLayout=stackLayout;horizontal=1;startSize=40;horizontalStack=0;resizeParent=1;resizeParentMax=0;resizeLast=0;collapsible=1;marginBottom=0;fontColor=default;" parent="WIyWlLk6GJQsqaUBKTNV-1" vertex="1"><mxGeometry x="730" y="1810" width="190" height="124" as="geometry"/></mxCell><mxCell id="NYYMoiH2fDYC1uSWcf2y-317" value="+ title: String { readOnly }" style="text;strokeColor=none;fillColor=none;align=left;verticalAlign=top;spacingLeft=4;spacingRight=4;overflow=hidden;rotatable=0;points=[[0,0.5],[1,0.5]];portConstraint=eastwest;fontColor=default;" parent="NYYMoiH2fDYC1uSWcf2y-316" vertex="1"><mxGeometry y="40" width="190" height="26" as="geometry"/></mxCell><mxCell id="NYYMoiH2fDYC1uSWcf2y-319" value="" style="line;strokeWidth=1;fillColor=none;align=left;verticalAlign=middle;spacingTop=-1;spacingLeft=3;spacingRight=3;rotatable=0;labelPosition=right;points=[];portConstraint=eastwest;strokeColor=inherit;fontColor=default;" parent="NYYMoiH2fDYC1uSWcf2y-316" vertex="1"><mxGeometry y="66" width="190" height="8" as="geometry"/></mxCell><mxCell id="NYYMoiH2fDYC1uSWcf2y-320" value="+ AddCollectionMainEvent(&#10;        title: String&#10;    )" style="text;strokeColor=none;fillColor=none;align=left;verticalAlign=top;spacingLeft=4;spacingRight=4;overflow=hidden;rotatable=0;points=[[0,0.5],[1,0.5]];portConstraint=eastwest;fontColor=default;" parent="NYYMoiH2fDYC1uSWcf2y-316" vertex="1"><mxGeometry y="74" width="190" height="50" as="geometry"/></mxCell><mxCell id="NYYMoiH2fDYC1uSWcf2y-322" value="&lt;&lt;data class&gt;&gt;&#10;AddItemMainEvent" style="swimlane;fontStyle=0;align=center;verticalAlign=top;childLayout=stackLayout;horizontal=1;startSize=40;horizontalStack=0;resizeParent=1;resizeParentMax=0;resizeLast=0;collapsible=1;marginBottom=0;fontColor=default;" parent="WIyWlLk6GJQsqaUBKTNV-1" vertex="1"><mxGeometry x="1300" y="1660" width="220" height="164" as="geometry"/></mxCell><mxCell id="NYYMoiH2fDYC1uSWcf2y-323" value="+ collectionTitle: String { readOnly }" style="text;strokeColor=none;fillColor=none;align=left;verticalAlign=top;spacingLeft=4;spacingRight=4;overflow=hidden;rotatable=0;points=[[0,0.5],[1,0.5]];portConstraint=eastwest;fontColor=default;" parent="NYYMoiH2fDYC1uSWcf2y-322" vertex="1"><mxGeometry y="40" width="220" height="26" as="geometry"/></mxCell><mxCell id="NYYMoiH2fDYC1uSWcf2y-326" value="+ item: ZoteroItem { readOnly }" style="text;strokeColor=none;fillColor=none;align=left;verticalAlign=top;spacingLeft=4;spacingRight=4;overflow=hidden;rotatable=0;points=[[0,0.5],[1,0.5]];portConstraint=eastwest;fontColor=default;" parent="NYYMoiH2fDYC1uSWcf2y-322" vertex="1"><mxGeometry y="66" width="220" height="26" as="geometry"/></mxCell><mxCell id="NYYMoiH2fDYC1uSWcf2y-324" value="" style="line;strokeWidth=1;fillColor=none;align=left;verticalAlign=middle;spacingTop=-1;spacingLeft=3;spacingRight=3;rotatable=0;labelPosition=right;points=[];portConstraint=eastwest;strokeColor=inherit;fontColor=default;" parent="NYYMoiH2fDYC1uSWcf2y-322" vertex="1"><mxGeometry y="92" width="220" height="8" as="geometry"/></mxCell><mxCell id="NYYMoiH2fDYC1uSWcf2y-325" value="+ AddItemMainEvent(&#10;        title: String,&#10;        item: ZoteroItem&#10;    )" style="text;strokeColor=none;fillColor=none;align=left;verticalAlign=top;spacingLeft=4;spacingRight=4;overflow=hidden;rotatable=0;points=[[0,0.5],[1,0.5]];portConstraint=eastwest;fontColor=default;" parent="NYYMoiH2fDYC1uSWcf2y-322" vertex="1"><mxGeometry y="100" width="220" height="64" as="geometry"/></mxCell><mxCell id="NYYMoiH2fDYC1uSWcf2y-328" value="UpdateItemMainEvent&#10;&lt;&lt;data class&gt;&gt;" style="swimlane;fontStyle=0;align=center;verticalAlign=top;childLayout=stackLayout;horizontal=1;startSize=40;horizontalStack=0;resizeParent=1;resizeParentMax=0;resizeLast=0;collapsible=1;marginBottom=0;fontColor=default;" parent="WIyWlLk6GJQsqaUBKTNV-1" vertex="1"><mxGeometry x="1300" y="1460" width="220" height="204" as="geometry"/></mxCell><mxCell id="NYYMoiH2fDYC1uSWcf2y-329" value="+ collectionTitle: String { readOnly }" style="text;strokeColor=none;fillColor=none;align=left;verticalAlign=top;spacingLeft=4;spacingRight=4;overflow=hidden;rotatable=0;points=[[0,0.5],[1,0.5]];portConstraint=eastwest;fontColor=default;" parent="NYYMoiH2fDYC1uSWcf2y-328" vertex="1"><mxGeometry y="40" width="220" height="26" as="geometry"/></mxCell><mxCell id="NYYMoiH2fDYC1uSWcf2y-330" value="+ item: ZoteroItem { readOnly }" style="text;strokeColor=none;fillColor=none;align=left;verticalAlign=top;spacingLeft=4;spacingRight=4;overflow=hidden;rotatable=0;points=[[0,0.5],[1,0.5]];portConstraint=eastwest;fontColor=default;" parent="NYYMoiH2fDYC1uSWcf2y-328" vertex="1"><mxGeometry y="66" width="220" height="26" as="geometry"/></mxCell><mxCell id="NYYMoiH2fDYC1uSWcf2y-333" value="+ newItem: ZoteroItem { readOnly }" style="text;strokeColor=none;fillColor=none;align=left;verticalAlign=top;spacingLeft=4;spacingRight=4;overflow=hidden;rotatable=0;points=[[0,0.5],[1,0.5]];portConstraint=eastwest;fontColor=default;" parent="NYYMoiH2fDYC1uSWcf2y-328" vertex="1"><mxGeometry y="92" width="220" height="26" as="geometry"/></mxCell><mxCell id="NYYMoiH2fDYC1uSWcf2y-331" value="" style="line;strokeWidth=1;fillColor=none;align=left;verticalAlign=middle;spacingTop=-1;spacingLeft=3;spacingRight=3;rotatable=0;labelPosition=right;points=[];portConstraint=eastwest;strokeColor=inherit;fontColor=default;" parent="NYYMoiH2fDYC1uSWcf2y-328" vertex="1"><mxGeometry y="118" width="220" height="8" as="geometry"/></mxCell><mxCell id="NYYMoiH2fDYC1uSWcf2y-332" value="+ UpdateItemMainEvent(&#10;        title: String,&#10;        item: ZoteroItem,&#10;        newItem: ZoteroItem&#10;    )" style="text;strokeColor=none;fillColor=none;align=left;verticalAlign=top;spacingLeft=4;spacingRight=4;overflow=hidden;rotatable=0;points=[[0,0.5],[1,0.5]];portConstraint=eastwest;fontColor=default;" parent="NYYMoiH2fDYC1uSWcf2y-328" vertex="1"><mxGeometry y="126" width="220" height="78" as="geometry"/></mxCell><mxCell id="NYYMoiH2fDYC1uSWcf2y-335" value="&lt;&lt;data class&gt;&gt;&#10;DeleteItemMainEvent" style="swimlane;fontStyle=0;align=center;verticalAlign=top;childLayout=stackLayout;horizontal=1;startSize=40;horizontalStack=0;resizeParent=1;resizeParentMax=0;resizeLast=0;collapsible=1;marginBottom=0;fontColor=default;" parent="WIyWlLk6GJQsqaUBKTNV-1" vertex="1"><mxGeometry x="1240" y="1840" width="220" height="164" as="geometry"/></mxCell><mxCell id="NYYMoiH2fDYC1uSWcf2y-336" value="+ collectionTitle: String { readOnly }" style="text;strokeColor=none;fillColor=none;align=left;verticalAlign=top;spacingLeft=4;spacingRight=4;overflow=hidden;rotatable=0;points=[[0,0.5],[1,0.5]];portConstraint=eastwest;fontColor=default;" parent="NYYMoiH2fDYC1uSWcf2y-335" vertex="1"><mxGeometry y="40" width="220" height="26" as="geometry"/></mxCell><mxCell id="NYYMoiH2fDYC1uSWcf2y-337" value="+ item: ZoteroItem { readOnly }" style="text;strokeColor=none;fillColor=none;align=left;verticalAlign=top;spacingLeft=4;spacingRight=4;overflow=hidden;rotatable=0;points=[[0,0.5],[1,0.5]];portConstraint=eastwest;fontColor=default;" parent="NYYMoiH2fDYC1uSWcf2y-335" vertex="1"><mxGeometry y="66" width="220" height="26" as="geometry"/></mxCell><mxCell id="NYYMoiH2fDYC1uSWcf2y-338" value="" style="line;strokeWidth=1;fillColor=none;align=left;verticalAlign=middle;spacingTop=-1;spacingLeft=3;spacingRight=3;rotatable=0;labelPosition=right;points=[];portConstraint=eastwest;strokeColor=inherit;fontColor=default;" parent="NYYMoiH2fDYC1uSWcf2y-335" vertex="1"><mxGeometry y="92" width="220" height="8" as="geometry"/></mxCell><mxCell id="NYYMoiH2fDYC1uSWcf2y-339" value="+ DeleteItemMainEvent(&#10;        title: String,&#10;        item: ZoteroItem&#10;    )" style="text;strokeColor=none;fillColor=none;align=left;verticalAlign=top;spacingLeft=4;spacingRight=4;overflow=hidden;rotatable=0;points=[[0,0.5],[1,0.5]];portConstraint=eastwest;fontColor=default;" parent="NYYMoiH2fDYC1uSWcf2y-335" vertex="1"><mxGeometry y="100" width="220" height="64" as="geometry"/></mxCell><mxCell id="NYYMoiH2fDYC1uSWcf2y-341" value="Use" style="endArrow=open;endSize=12;dashed=1;html=1;rounded=0;" parent="WIyWlLk6GJQsqaUBKTNV-1" source="NYYMoiH2fDYC1uSWcf2y-22" target="NYYMoiH2fDYC1uSWcf2y-282" edge="1"><mxGeometry width="160" relative="1" as="geometry"><mxPoint x="1084.3109540636042" y="690" as="sourcePoint"/><mxPoint x="973.1802120141342" y="860" as="targetPoint"/><Array as="points"><mxPoint x="1250" y="770"/><mxPoint x="1890" y="770"/><mxPoint x="1880" y="1480"/></Array></mxGeometry></mxCell><mxCell id="NYYMoiH2fDYC1uSWcf2y-342" value="RegisterComponent" style="swimlane;fontStyle=0;align=center;verticalAlign=top;childLayout=stackLayout;horizontal=1;startSize=26;horizontalStack=0;resizeParent=1;resizeParentMax=0;resizeLast=0;collapsible=1;marginBottom=0;fontColor=default;" parent="WIyWlLk6GJQsqaUBKTNV-1" vertex="1"><mxGeometry x="360" y="20" width="280" height="164" as="geometry"/></mxCell><mxCell id="NYYMoiH2fDYC1uSWcf2y-343" value="+ registerState: RegisterState" style="text;strokeColor=none;fillColor=none;align=left;verticalAlign=top;spacingLeft=4;spacingRight=4;overflow=hidden;rotatable=0;points=[[0,0.5],[1,0.5]];portConstraint=eastwest;fontColor=default;" parent="NYYMoiH2fDYC1uSWcf2y-342" vertex="1"><mxGeometry y="26" width="280" height="26" as="geometry"/></mxCell><mxCell id="NYYMoiH2fDYC1uSWcf2y-345" value="- userRepository: IUserRepository { readOnly }" style="text;strokeColor=none;fillColor=none;align=left;verticalAlign=top;spacingLeft=4;spacingRight=4;overflow=hidden;rotatable=0;points=[[0,0.5],[1,0.5]];portConstraint=eastwest;fontColor=default;" parent="NYYMoiH2fDYC1uSWcf2y-342" vertex="1"><mxGeometry y="52" width="280" height="26" as="geometry"/></mxCell><mxCell id="NYYMoiH2fDYC1uSWcf2y-346" value="" style="line;strokeWidth=1;fillColor=none;align=left;verticalAlign=middle;spacingTop=-1;spacingLeft=3;spacingRight=3;rotatable=0;labelPosition=right;points=[];portConstraint=eastwest;strokeColor=inherit;fontColor=default;" parent="NYYMoiH2fDYC1uSWcf2y-342" vertex="1"><mxGeometry y="78" width="280" height="8" as="geometry"/></mxCell><mxCell id="NYYMoiH2fDYC1uSWcf2y-347" value="+ reduce(registerEvent: RegisterEvent)" style="text;strokeColor=none;fillColor=none;align=left;verticalAlign=top;spacingLeft=4;spacingRight=4;overflow=hidden;rotatable=0;points=[[0,0.5],[1,0.5]];portConstraint=eastwest;fontColor=default;" parent="NYYMoiH2fDYC1uSWcf2y-342" vertex="1"><mxGeometry y="86" width="280" height="26" as="geometry"/></mxCell><mxCell id="NYYMoiH2fDYC1uSWcf2y-348" value="+ RegisterComponent(&#10;        userRepository: IUserRepository&#10;    )" style="text;strokeColor=none;fillColor=none;align=left;verticalAlign=top;spacingLeft=4;spacingRight=4;overflow=hidden;rotatable=0;points=[[0,0.5],[1,0.5]];portConstraint=eastwest;fontColor=default;" parent="NYYMoiH2fDYC1uSWcf2y-342" vertex="1"><mxGeometry y="112" width="280" height="52" as="geometry"/></mxCell><mxCell id="NYYMoiH2fDYC1uSWcf2y-349" value="1" style="endArrow=open;html=1;endSize=12;startArrow=diamondThin;startSize=14;startFill=0;edgeStyle=orthogonalEdgeStyle;align=left;verticalAlign=bottom;rounded=0;fontColor=default;" parent="WIyWlLk6GJQsqaUBKTNV-1" source="NYYMoiH2fDYC1uSWcf2y-342" target="NYYMoiH2fDYC1uSWcf2y-2" edge="1"><mxGeometry x="-0.8907" y="-15" relative="1" as="geometry"><mxPoint x="850" y="405" as="sourcePoint"/><mxPoint x="690" y="375" as="targetPoint"/><mxPoint as="offset"/></mxGeometry></mxCell><mxCell id="NYYMoiH2fDYC1uSWcf2y-350" value="&lt;&lt;data class&gt;&gt;&#10;RegisterState" style="swimlane;fontStyle=0;align=center;verticalAlign=top;childLayout=stackLayout;horizontal=1;startSize=40;horizontalStack=0;resizeParent=1;resizeParentMax=0;resizeLast=0;collapsible=1;marginBottom=0;fontColor=default;" parent="WIyWlLk6GJQsqaUBKTNV-1" vertex="1"><mxGeometry x="740" y="10" width="200" height="204" as="geometry"/></mxCell><mxCell id="NYYMoiH2fDYC1uSWcf2y-351" value="+ username: String" style="text;strokeColor=none;fillColor=none;align=left;verticalAlign=top;spacingLeft=4;spacingRight=4;overflow=hidden;rotatable=0;points=[[0,0.5],[1,0.5]];portConstraint=eastwest;fontColor=default;" parent="NYYMoiH2fDYC1uSWcf2y-350" vertex="1"><mxGeometry y="40" width="200" height="26" as="geometry"/></mxCell><mxCell id="NYYMoiH2fDYC1uSWcf2y-362" value="+ email: String" style="text;strokeColor=none;fillColor=none;align=left;verticalAlign=top;spacingLeft=4;spacingRight=4;overflow=hidden;rotatable=0;points=[[0,0.5],[1,0.5]];portConstraint=eastwest;fontColor=default;" parent="NYYMoiH2fDYC1uSWcf2y-350" vertex="1"><mxGeometry y="66" width="200" height="26" as="geometry"/></mxCell><mxCell id="NYYMoiH2fDYC1uSWcf2y-363" value="+ emailConfirm: String" style="text;strokeColor=none;fillColor=none;align=left;verticalAlign=top;spacingLeft=4;spacingRight=4;overflow=hidden;rotatable=0;points=[[0,0.5],[1,0.5]];portConstraint=eastwest;fontColor=default;" parent="NYYMoiH2fDYC1uSWcf2y-350" vertex="1"><mxGeometry y="92" width="200" height="26" as="geometry"/></mxCell><mxCell id="NYYMoiH2fDYC1uSWcf2y-352" value="+ password: String" style="text;strokeColor=none;fillColor=none;align=left;verticalAlign=top;spacingLeft=4;spacingRight=4;overflow=hidden;rotatable=0;points=[[0,0.5],[1,0.5]];portConstraint=eastwest;fontColor=default;" parent="NYYMoiH2fDYC1uSWcf2y-350" vertex="1"><mxGeometry y="118" width="200" height="26" as="geometry"/></mxCell><mxCell id="NYYMoiH2fDYC1uSWcf2y-353" value="+ verifPassword: String" style="text;strokeColor=none;fillColor=none;align=left;verticalAlign=top;spacingLeft=4;spacingRight=4;overflow=hidden;rotatable=0;points=[[0,0.5],[1,0.5]];portConstraint=eastwest;fontColor=default;" parent="NYYMoiH2fDYC1uSWcf2y-350" vertex="1"><mxGeometry y="144" width="200" height="26" as="geometry"/></mxCell><mxCell id="NYYMoiH2fDYC1uSWcf2y-354" value="" style="line;strokeWidth=1;fillColor=none;align=left;verticalAlign=middle;spacingTop=-1;spacingLeft=3;spacingRight=3;rotatable=0;labelPosition=right;points=[];portConstraint=eastwest;strokeColor=inherit;fontColor=default;" parent="NYYMoiH2fDYC1uSWcf2y-350" vertex="1"><mxGeometry y="170" width="200" height="8" as="geometry"/></mxCell><mxCell id="NYYMoiH2fDYC1uSWcf2y-355" value="+ RegisterState()" style="text;strokeColor=none;fillColor=none;align=left;verticalAlign=top;spacingLeft=4;spacingRight=4;overflow=hidden;rotatable=0;points=[[0,0.5],[1,0.5]];portConstraint=eastwest;fontColor=default;" parent="NYYMoiH2fDYC1uSWcf2y-350" vertex="1"><mxGeometry y="178" width="200" height="26" as="geometry"/></mxCell><mxCell id="NYYMoiH2fDYC1uSWcf2y-356" value="&lt;&lt;value class&gt;&gt;&#10;PasswordForgotClickLoginEvent" style="swimlane;fontStyle=0;align=center;verticalAlign=top;childLayout=stackLayout;horizontal=1;startSize=42;horizontalStack=0;resizeParent=1;resizeParentMax=0;resizeLast=0;collapsible=1;marginBottom=0;fontColor=default;" parent="WIyWlLk6GJQsqaUBKTNV-1" vertex="1"><mxGeometry x="1460" y="628" width="210" height="126" as="geometry"/></mxCell><mxCell id="NYYMoiH2fDYC1uSWcf2y-357" value="+ email: String { readOnly }" style="text;strokeColor=none;fillColor=none;align=left;verticalAlign=top;spacingLeft=4;spacingRight=4;overflow=hidden;rotatable=0;points=[[0,0.5],[1,0.5]];portConstraint=eastwest;fontColor=default;" parent="NYYMoiH2fDYC1uSWcf2y-356" vertex="1"><mxGeometry y="42" width="210" height="26" as="geometry"/></mxCell><mxCell id="NYYMoiH2fDYC1uSWcf2y-358" value="" style="line;strokeWidth=1;fillColor=none;align=left;verticalAlign=middle;spacingTop=-1;spacingLeft=3;spacingRight=3;rotatable=0;labelPosition=right;points=[];portConstraint=eastwest;strokeColor=inherit;fontColor=default;" parent="NYYMoiH2fDYC1uSWcf2y-356" vertex="1"><mxGeometry y="68" width="210" height="8" as="geometry"/></mxCell><mxCell id="NYYMoiH2fDYC1uSWcf2y-359" value="+ PasswordForgotClickLoginEvent(&#10;        email: String&#10;    )" style="text;strokeColor=none;fillColor=none;align=left;verticalAlign=top;spacingLeft=4;spacingRight=4;overflow=hidden;rotatable=0;points=[[0,0.5],[1,0.5]];portConstraint=eastwest;fontColor=default;" parent="NYYMoiH2fDYC1uSWcf2y-356" vertex="1"><mxGeometry y="76" width="210" height="50" as="geometry"/></mxCell><mxCell id="NYYMoiH2fDYC1uSWcf2y-361" value="Extends" style="endArrow=block;endSize=16;endFill=0;html=1;rounded=0;fontColor=default;" parent="WIyWlLk6GJQsqaUBKTNV-1" source="NYYMoiH2fDYC1uSWcf2y-356" target="NYYMoiH2fDYC1uSWcf2y-239" edge="1"><mxGeometry width="160" relative="1" as="geometry"><mxPoint x="1835.7142857142858" y="630" as="sourcePoint"/><mxPoint x="1701.4285714285716" y="348" as="targetPoint"/><Array as="points"><mxPoint x="1670" y="550"/></Array></mxGeometry></mxCell><mxCell id="NYYMoiH2fDYC1uSWcf2y-365" value="1" style="endArrow=open;html=1;endSize=12;startArrow=diamondThin;startSize=14;startFill=1;edgeStyle=orthogonalEdgeStyle;align=left;verticalAlign=bottom;rounded=0;fontColor=default;" parent="WIyWlLk6GJQsqaUBKTNV-1" source="NYYMoiH2fDYC1uSWcf2y-342" target="NYYMoiH2fDYC1uSWcf2y-350" edge="1"><mxGeometry x="-1" y="3" relative="1" as="geometry"><mxPoint x="1130" y="405" as="sourcePoint"/><mxPoint x="1220" y="449" as="targetPoint"/></mxGeometry></mxCell><mxCell id="NYYMoiH2fDYC1uSWcf2y-366" value="&lt;&lt;sealed interface&gt;&gt;&#10;RegisterEvent    " style="swimlane;fontStyle=0;align=center;verticalAlign=top;childLayout=stackLayout;horizontal=1;startSize=40;horizontalStack=0;resizeParent=1;resizeParentMax=0;resizeLast=0;collapsible=1;marginBottom=0;fontColor=default;" parent="WIyWlLk6GJQsqaUBKTNV-1" vertex="1"><mxGeometry x="760" y="230" width="160" height="48" as="geometry"/></mxCell><mxCell id="NYYMoiH2fDYC1uSWcf2y-367" value="" style="line;strokeWidth=1;fillColor=none;align=left;verticalAlign=middle;spacingTop=-1;spacingLeft=3;spacingRight=3;rotatable=0;labelPosition=right;points=[];portConstraint=eastwest;strokeColor=inherit;fontColor=default;" parent="NYYMoiH2fDYC1uSWcf2y-366" vertex="1"><mxGeometry y="40" width="160" height="8" as="geometry"/></mxCell><mxCell id="NYYMoiH2fDYC1uSWcf2y-370" value="&lt;&lt;value class&gt;&gt;&#10;UsernameChangeRegisterEvent" style="swimlane;fontStyle=0;align=center;verticalAlign=top;childLayout=stackLayout;horizontal=1;startSize=40;horizontalStack=0;resizeParent=1;resizeParentMax=0;resizeLast=0;collapsible=1;marginBottom=0;fontColor=default;" parent="WIyWlLk6GJQsqaUBKTNV-1" vertex="1"><mxGeometry x="975" y="16" width="210" height="124" as="geometry"/></mxCell><mxCell id="NYYMoiH2fDYC1uSWcf2y-371" value="+ username: String { readOnly }" style="text;strokeColor=none;fillColor=none;align=left;verticalAlign=top;spacingLeft=4;spacingRight=4;overflow=hidden;rotatable=0;points=[[0,0.5],[1,0.5]];portConstraint=eastwest;fontColor=default;" parent="NYYMoiH2fDYC1uSWcf2y-370" vertex="1"><mxGeometry y="40" width="210" height="26" as="geometry"/></mxCell><mxCell id="NYYMoiH2fDYC1uSWcf2y-372" value="" style="line;strokeWidth=1;fillColor=none;align=left;verticalAlign=middle;spacingTop=-1;spacingLeft=3;spacingRight=3;rotatable=0;labelPosition=right;points=[];portConstraint=eastwest;strokeColor=inherit;fontColor=default;" parent="NYYMoiH2fDYC1uSWcf2y-370" vertex="1"><mxGeometry y="66" width="210" height="8" as="geometry"/></mxCell><mxCell id="NYYMoiH2fDYC1uSWcf2y-373" value="+ UsernameChangeRegisterEvent(&#10;        username: String&#10;    )" style="text;strokeColor=none;fillColor=none;align=left;verticalAlign=top;spacingLeft=4;spacingRight=4;overflow=hidden;rotatable=0;points=[[0,0.5],[1,0.5]];portConstraint=eastwest;fontColor=default;" parent="NYYMoiH2fDYC1uSWcf2y-370" vertex="1"><mxGeometry y="74" width="210" height="50" as="geometry"/></mxCell><mxCell id="NYYMoiH2fDYC1uSWcf2y-375" value="&lt;&lt;value class&gt;&gt;&#10;EmailConfirmChangeRegisterEvent" style="swimlane;fontStyle=0;align=center;verticalAlign=top;childLayout=stackLayout;horizontal=1;startSize=40;horizontalStack=0;resizeParent=1;resizeParentMax=0;resizeLast=0;collapsible=1;marginBottom=0;fontColor=default;" parent="WIyWlLk6GJQsqaUBKTNV-1" vertex="1"><mxGeometry x="1250" y="16" width="235" height="124" as="geometry"/></mxCell><mxCell id="NYYMoiH2fDYC1uSWcf2y-376" value="+ email: String { readOnly }" style="text;strokeColor=none;fillColor=none;align=left;verticalAlign=top;spacingLeft=4;spacingRight=4;overflow=hidden;rotatable=0;points=[[0,0.5],[1,0.5]];portConstraint=eastwest;fontColor=default;" parent="NYYMoiH2fDYC1uSWcf2y-375" vertex="1"><mxGeometry y="40" width="235" height="26" as="geometry"/></mxCell><mxCell id="NYYMoiH2fDYC1uSWcf2y-377" value="" style="line;strokeWidth=1;fillColor=none;align=left;verticalAlign=middle;spacingTop=-1;spacingLeft=3;spacingRight=3;rotatable=0;labelPosition=right;points=[];portConstraint=eastwest;strokeColor=inherit;fontColor=default;" parent="NYYMoiH2fDYC1uSWcf2y-375" vertex="1"><mxGeometry y="66" width="235" height="8" as="geometry"/></mxCell><mxCell id="NYYMoiH2fDYC1uSWcf2y-378" value="+ EmailConfirmChangeRegisterEvent(&#10;        email: String&#10;    )" style="text;strokeColor=none;fillColor=none;align=left;verticalAlign=top;spacingLeft=4;spacingRight=4;overflow=hidden;rotatable=0;points=[[0,0.5],[1,0.5]];portConstraint=eastwest;fontColor=default;" parent="NYYMoiH2fDYC1uSWcf2y-375" vertex="1"><mxGeometry y="74" width="235" height="50" as="geometry"/></mxCell><mxCell id="NYYMoiH2fDYC1uSWcf2y-379" value="&lt;&lt;value class&gt;&gt;&#10;PasswordChangeRegisterEvent" style="swimlane;fontStyle=0;align=center;verticalAlign=top;childLayout=stackLayout;horizontal=1;startSize=40;horizontalStack=0;resizeParent=1;resizeParentMax=0;resizeLast=0;collapsible=1;marginBottom=0;fontColor=default;" parent="WIyWlLk6GJQsqaUBKTNV-1" vertex="1"><mxGeometry x="1577.5" width="205" height="124" as="geometry"/></mxCell><mxCell id="NYYMoiH2fDYC1uSWcf2y-380" value="+ password: String { readOnly }" style="text;strokeColor=none;fillColor=none;align=left;verticalAlign=top;spacingLeft=4;spacingRight=4;overflow=hidden;rotatable=0;points=[[0,0.5],[1,0.5]];portConstraint=eastwest;fontColor=default;" parent="NYYMoiH2fDYC1uSWcf2y-379" vertex="1"><mxGeometry y="40" width="205" height="26" as="geometry"/></mxCell><mxCell id="NYYMoiH2fDYC1uSWcf2y-381" value="" style="line;strokeWidth=1;fillColor=none;align=left;verticalAlign=middle;spacingTop=-1;spacingLeft=3;spacingRight=3;rotatable=0;labelPosition=right;points=[];portConstraint=eastwest;strokeColor=inherit;fontColor=default;" parent="NYYMoiH2fDYC1uSWcf2y-379" vertex="1"><mxGeometry y="66" width="205" height="8" as="geometry"/></mxCell><mxCell id="NYYMoiH2fDYC1uSWcf2y-382" value="+ PasswordChangeRegisterEvent(&#10;        password: String&#10;    )" style="text;strokeColor=none;fillColor=none;align=left;verticalAlign=top;spacingLeft=4;spacingRight=4;overflow=hidden;rotatable=0;points=[[0,0.5],[1,0.5]];portConstraint=eastwest;fontColor=default;" parent="NYYMoiH2fDYC1uSWcf2y-379" vertex="1"><mxGeometry y="74" width="205" height="50" as="geometry"/></mxCell><mxCell id="NYYMoiH2fDYC1uSWcf2y-383" value="&lt;&lt;value class&gt;&gt;&#10;PasswordVerRegisterEvent" style="swimlane;fontStyle=0;align=center;verticalAlign=top;childLayout=stackLayout;horizontal=1;startSize=42;horizontalStack=0;resizeParent=1;resizeParentMax=0;resizeLast=0;collapsible=1;marginBottom=0;fontColor=default;" parent="WIyWlLk6GJQsqaUBKTNV-1" vertex="1"><mxGeometry x="1440" y="152" width="205" height="126" as="geometry"/></mxCell><mxCell id="NYYMoiH2fDYC1uSWcf2y-384" value="+ password: String { readOnly }" style="text;strokeColor=none;fillColor=none;align=left;verticalAlign=top;spacingLeft=4;spacingRight=4;overflow=hidden;rotatable=0;points=[[0,0.5],[1,0.5]];portConstraint=eastwest;fontColor=default;" parent="NYYMoiH2fDYC1uSWcf2y-383" vertex="1"><mxGeometry y="42" width="205" height="26" as="geometry"/></mxCell><mxCell id="NYYMoiH2fDYC1uSWcf2y-385" value="" style="line;strokeWidth=1;fillColor=none;align=left;verticalAlign=middle;spacingTop=-1;spacingLeft=3;spacingRight=3;rotatable=0;labelPosition=right;points=[];portConstraint=eastwest;strokeColor=inherit;fontColor=default;" parent="NYYMoiH2fDYC1uSWcf2y-383" vertex="1"><mxGeometry y="68" width="205" height="8" as="geometry"/></mxCell><mxCell id="NYYMoiH2fDYC1uSWcf2y-386" value="+ PasswordChangeRegisterEvent(&#10;        password: String&#10;    )" style="text;strokeColor=none;fillColor=none;align=left;verticalAlign=top;spacingLeft=4;spacingRight=4;overflow=hidden;rotatable=0;points=[[0,0.5],[1,0.5]];portConstraint=eastwest;fontColor=default;" parent="NYYMoiH2fDYC1uSWcf2y-383" vertex="1"><mxGeometry y="76" width="205" height="50" as="geometry"/></mxCell><mxCell id="NYYMoiH2fDYC1uSWcf2y-387" value="&lt;&lt;singletone&gt;&gt;&#10;RegClickRegisterEvent" style="swimlane;fontStyle=0;align=center;verticalAlign=top;childLayout=stackLayout;horizontal=1;startSize=36;horizontalStack=0;resizeParent=1;resizeParentMax=0;resizeLast=0;collapsible=1;marginBottom=0;fontColor=default;" parent="WIyWlLk6GJQsqaUBKTNV-1" vertex="1"><mxGeometry x="1170" y="160" width="205" height="70" as="geometry"/></mxCell><mxCell id="NYYMoiH2fDYC1uSWcf2y-389" value="" style="line;strokeWidth=1;fillColor=none;align=left;verticalAlign=middle;spacingTop=-1;spacingLeft=3;spacingRight=3;rotatable=0;labelPosition=right;points=[];portConstraint=eastwest;strokeColor=inherit;fontColor=default;" parent="NYYMoiH2fDYC1uSWcf2y-387" vertex="1"><mxGeometry y="36" width="205" height="8" as="geometry"/></mxCell><mxCell id="NYYMoiH2fDYC1uSWcf2y-390" value="+ RegClickRegisterEvent()" style="text;strokeColor=none;fillColor=none;align=left;verticalAlign=top;spacingLeft=4;spacingRight=4;overflow=hidden;rotatable=0;points=[[0,0.5],[1,0.5]];portConstraint=eastwest;fontColor=default;" parent="NYYMoiH2fDYC1uSWcf2y-387" vertex="1"><mxGeometry y="44" width="205" height="26" as="geometry"/></mxCell><mxCell id="NYYMoiH2fDYC1uSWcf2y-395" value="&lt;&lt;value class&gt;&gt;&#10;EmailChangeRegisterEvent" style="swimlane;fontStyle=0;align=center;verticalAlign=top;childLayout=stackLayout;horizontal=1;startSize=40;horizontalStack=0;resizeParent=1;resizeParentMax=0;resizeLast=0;collapsible=1;marginBottom=0;fontColor=default;" parent="WIyWlLk6GJQsqaUBKTNV-1" vertex="1"><mxGeometry x="1750" y="150" width="235" height="124" as="geometry"/></mxCell><mxCell id="NYYMoiH2fDYC1uSWcf2y-396" value="+ email: String { readOnly }" style="text;strokeColor=none;fillColor=none;align=left;verticalAlign=top;spacingLeft=4;spacingRight=4;overflow=hidden;rotatable=0;points=[[0,0.5],[1,0.5]];portConstraint=eastwest;fontColor=default;" parent="NYYMoiH2fDYC1uSWcf2y-395" vertex="1"><mxGeometry y="40" width="235" height="26" as="geometry"/></mxCell><mxCell id="NYYMoiH2fDYC1uSWcf2y-397" value="" style="line;strokeWidth=1;fillColor=none;align=left;verticalAlign=middle;spacingTop=-1;spacingLeft=3;spacingRight=3;rotatable=0;labelPosition=right;points=[];portConstraint=eastwest;strokeColor=inherit;fontColor=default;" parent="NYYMoiH2fDYC1uSWcf2y-395" vertex="1"><mxGeometry y="66" width="235" height="8" as="geometry"/></mxCell><mxCell id="NYYMoiH2fDYC1uSWcf2y-398" value="+ EmailChangeRegisterEvent(&#10;        email: String&#10;    )" style="text;strokeColor=none;fillColor=none;align=left;verticalAlign=top;spacingLeft=4;spacingRight=4;overflow=hidden;rotatable=0;points=[[0,0.5],[1,0.5]];portConstraint=eastwest;fontColor=default;" parent="NYYMoiH2fDYC1uSWcf2y-395" vertex="1"><mxGeometry y="74" width="235" height="50" as="geometry"/></mxCell><mxCell id="naM0Vag8xCBrJSv8B079-0" value="WordProcessorComponent" style="swimlane;fontStyle=0;align=center;verticalAlign=top;childLayout=stackLayout;horizontal=1;startSize=26;horizontalStack=0;resizeParent=1;resizeParentMax=0;resizeLast=0;collapsible=1;marginBottom=0;fontColor=default;" parent="WIyWlLk6GJQsqaUBKTNV-1" vertex="1"><mxGeometry x="1580" y="1576" width="320" height="188" as="geometry"/></mxCell><mxCell id="naM0Vag8xCBrJSv8B079-3" value="- collectionRepository: ICollectionRepository{ readOnly }" style="text;strokeColor=none;fillColor=none;align=left;verticalAlign=top;spacingLeft=4;spacingRight=4;overflow=hidden;rotatable=0;points=[[0,0.5],[1,0.5]];portConstraint=eastwest;fontColor=default;" parent="naM0Vag8xCBrJSv8B079-0" vertex="1"><mxGeometry y="26" width="320" height="26" as="geometry"/></mxCell><mxCell id="naM0Vag8xCBrJSv8B079-4" value="- itemRepository: ItemRepository { readOnly }&#10;" style="text;strokeColor=none;fillColor=none;align=left;verticalAlign=top;spacingLeft=4;spacingRight=4;overflow=hidden;rotatable=0;points=[[0,0.5],[1,0.5]];portConstraint=eastwest;fontColor=default;" parent="naM0Vag8xCBrJSv8B079-0" vertex="1"><mxGeometry y="52" width="320" height="26" as="geometry"/></mxCell><mxCell id="naM0Vag8xCBrJSv8B079-6" value="" style="line;strokeWidth=1;fillColor=none;align=left;verticalAlign=middle;spacingTop=-1;spacingLeft=3;spacingRight=3;rotatable=0;labelPosition=right;points=[];portConstraint=eastwest;strokeColor=inherit;fontColor=default;" parent="naM0Vag8xCBrJSv8B079-0" vertex="1"><mxGeometry y="78" width="320" height="8" as="geometry"/></mxCell><mxCell id="naM0Vag8xCBrJSv8B079-7" value="+ generateCitations()" style="text;strokeColor=none;fillColor=none;align=left;verticalAlign=top;spacingLeft=4;spacingRight=4;overflow=hidden;rotatable=0;points=[[0,0.5],[1,0.5]];portConstraint=eastwest;fontColor=default;" parent="naM0Vag8xCBrJSv8B079-0" vertex="1"><mxGeometry y="86" width="320" height="26" as="geometry"/></mxCell><mxCell id="naM0Vag8xCBrJSv8B079-8" value="+ WordProcessorComponent(&#10;        collectionRepository: ICollectionRepository,&#10;        itemRepository: ItemRepository,&#10;    )" style="text;strokeColor=none;fillColor=none;align=left;verticalAlign=top;spacingLeft=4;spacingRight=4;overflow=hidden;rotatable=0;points=[[0,0.5],[1,0.5]];portConstraint=eastwest;fontColor=default;" parent="naM0Vag8xCBrJSv8B079-0" vertex="1"><mxGeometry y="112" width="320" height="76" as="geometry"/></mxCell><mxCell id="naM0Vag8xCBrJSv8B079-12" value="1" style="endArrow=open;html=1;endSize=12;startArrow=diamondThin;startSize=14;startFill=0;edgeStyle=orthogonalEdgeStyle;align=left;verticalAlign=bottom;rounded=0;" parent="WIyWlLk6GJQsqaUBKTNV-1" source="naM0Vag8xCBrJSv8B079-0" target="NYYMoiH2fDYC1uSWcf2y-141" edge="1"><mxGeometry x="-1" y="3" relative="1" as="geometry"><mxPoint x="1090" y="1230" as="sourcePoint"/><mxPoint x="1250" y="1230" as="targetPoint"/><Array as="points"><mxPoint x="1950" y="1683"/><mxPoint x="1950" y="1020"/></Array></mxGeometry></mxCell><mxCell id="naM0Vag8xCBrJSv8B079-13" value="1" style="endArrow=open;html=1;endSize=12;startArrow=diamondThin;startSize=14;startFill=0;edgeStyle=orthogonalEdgeStyle;align=left;verticalAlign=bottom;rounded=0;" parent="WIyWlLk6GJQsqaUBKTNV-1" source="naM0Vag8xCBrJSv8B079-0" target="NYYMoiH2fDYC1uSWcf2y-188" edge="1"><mxGeometry x="-1" y="3" relative="1" as="geometry"><mxPoint x="1520" y="1160" as="sourcePoint"/><mxPoint x="1680" y="1160" as="targetPoint"/><Array as="points"><mxPoint x="1920" y="1590"/><mxPoint x="1920" y="1070"/><mxPoint x="1380" y="1070"/></Array></mxGeometry></mxCell><mxCell id="5" value="&lt;&lt;value class&gt;&gt; &#10;AddItemByIDMainEvent" style="swimlane;fontStyle=0;align=center;verticalAlign=top;childLayout=stackLayout;horizontal=1;startSize=40;horizontalStack=0;resizeParent=1;resizeParentMax=0;resizeLast=0;collapsible=1;marginBottom=0;fontColor=default;" parent="WIyWlLk6GJQsqaUBKTNV-1" vertex="1"><mxGeometry x="1000" y="1810" width="220" height="138" as="geometry"/></mxCell><mxCell id="6" value="+ id: String { readOnly }" style="text;strokeColor=none;fillColor=none;align=left;verticalAlign=top;spacingLeft=4;spacingRight=4;overflow=hidden;rotatable=0;points=[[0,0.5],[1,0.5]];portConstraint=eastwest;fontColor=default;" parent="5" vertex="1"><mxGeometry y="40" width="220" height="26" as="geometry"/></mxCell><mxCell id="8" value="" style="line;strokeWidth=1;fillColor=none;align=left;verticalAlign=middle;spacingTop=-1;spacingLeft=3;spacingRight=3;rotatable=0;labelPosition=right;points=[];portConstraint=eastwest;strokeColor=inherit;fontColor=default;" parent="5" vertex="1"><mxGeometry y="66" width="220" height="8" as="geometry"/></mxCell><mxCell id="9" value="+ AddItemByIDMainEvent(&#10;        id: String&#10;    )" style="text;strokeColor=none;fillColor=none;align=left;verticalAlign=top;spacingLeft=4;spacingRight=4;overflow=hidden;rotatable=0;points=[[0,0.5],[1,0.5]];portConstraint=eastwest;fontColor=default;" parent="5" vertex="1"><mxGeometry y="74" width="220" height="64" as="geometry"/></mxCell><mxCell id="10" value="&lt;&lt;enumeraqation&gt;&gt;&#10;Condition" style="swimlane;fontStyle=0;childLayout=stackLayout;horizontal=1;startSize=40;fillColor=none;horizontalStack=0;resizeParent=1;resizeParentMax=0;resizeLast=0;collapsible=1;marginBottom=0;" parent="WIyWlLk6GJQsqaUBKTNV-1" vertex="1"><mxGeometry x="23" y="580" width="140" height="170" as="geometry"/></mxCell><mxCell id="11" value="Is" style="text;strokeColor=none;fillColor=none;align=left;verticalAlign=top;spacingLeft=4;spacingRight=4;overflow=hidden;rotatable=0;points=[[0,0.5],[1,0.5]];portConstraint=eastwest;" parent="10" vertex="1"><mxGeometry y="40" width="140" height="26" as="geometry"/></mxCell><mxCell id="12" value="IsNot" style="text;strokeColor=none;fillColor=none;align=left;verticalAlign=top;spacingLeft=4;spacingRight=4;overflow=hidden;rotatable=0;points=[[0,0.5],[1,0.5]];portConstraint=eastwest;" parent="10" vertex="1"><mxGeometry y="66" width="140" height="26" as="geometry"/></mxCell><mxCell id="13" value="BeginsWith" style="text;strokeColor=none;fillColor=none;align=left;verticalAlign=top;spacingLeft=4;spacingRight=4;overflow=hidden;rotatable=0;points=[[0,0.5],[1,0.5]];portConstraint=eastwest;" parent="10" vertex="1"><mxGeometry y="92" width="140" height="26" as="geometry"/></mxCell><mxCell id="14" value="Contains" style="text;strokeColor=none;fillColor=none;align=left;verticalAlign=top;spacingLeft=4;spacingRight=4;overflow=hidden;rotatable=0;points=[[0,0.5],[1,0.5]];portConstraint=eastwest;" parent="10" vertex="1"><mxGeometry y="118" width="140" height="26" as="geometry"/></mxCell><mxCell id="15" value="DoesNotContain" style="text;strokeColor=none;fillColor=none;align=left;verticalAlign=top;spacingLeft=4;spacingRight=4;overflow=hidden;rotatable=0;points=[[0,0.5],[1,0.5]];portConstraint=eastwest;" parent="10" vertex="1"><mxGeometry y="144" width="140" height="26" as="geometry"/></mxCell><mxCell id="28" value="AdvancedSearchComponent" style="swimlane;fontStyle=0;align=center;verticalAlign=top;childLayout=stackLayout;horizontal=1;startSize=26;horizontalStack=0;resizeParent=1;resizeParentMax=0;resizeLast=0;collapsible=1;marginBottom=0;fontColor=default;" parent="WIyWlLk6GJQsqaUBKTNV-1" vertex="1"><mxGeometry x="1500" y="1880" width="320" height="170" as="geometry"/></mxCell><mxCell id="29" value="+ advancedSearchState: AdvancedSearchState" style="text;strokeColor=none;fillColor=none;align=left;verticalAlign=top;spacingLeft=4;spacingRight=4;overflow=hidden;rotatable=0;points=[[0,0.5],[1,0.5]];portConstraint=eastwest;fontColor=default;" parent="28" vertex="1"><mxGeometry y="26" width="320" height="26" as="geometry"/></mxCell><mxCell id="32" value="- itemRepository: IItemRepository { readOnly }&#10;" style="text;strokeColor=none;fillColor=none;align=left;verticalAlign=top;spacingLeft=4;spacingRight=4;overflow=hidden;rotatable=0;points=[[0,0.5],[1,0.5]];portConstraint=eastwest;fontColor=default;" parent="28" vertex="1"><mxGeometry y="52" width="320" height="26" as="geometry"/></mxCell><mxCell id="34" value="" style="line;strokeWidth=1;fillColor=none;align=left;verticalAlign=middle;spacingTop=-1;spacingLeft=3;spacingRight=3;rotatable=0;labelPosition=right;points=[];portConstraint=eastwest;strokeColor=inherit;fontColor=default;" parent="28" vertex="1"><mxGeometry y="78" width="320" height="8" as="geometry"/></mxCell><mxCell id="35" value="+ reduce(mainEvent: MainEvent)" style="text;strokeColor=none;fillColor=none;align=left;verticalAlign=top;spacingLeft=4;spacingRight=4;overflow=hidden;rotatable=0;points=[[0,0.5],[1,0.5]];portConstraint=eastwest;fontColor=default;" parent="28" vertex="1"><mxGeometry y="86" width="320" height="26" as="geometry"/></mxCell><mxCell id="36" value="+ AdvancedSearchComponent(&#10;        itemRepository: IItemRepository,&#10;    )" style="text;strokeColor=none;fillColor=none;align=left;verticalAlign=top;spacingLeft=4;spacingRight=4;overflow=hidden;rotatable=0;points=[[0,0.5],[1,0.5]];portConstraint=eastwest;fontColor=default;" parent="28" vertex="1"><mxGeometry y="112" width="320" height="58" as="geometry"/></mxCell><mxCell id="38" value="SeachQuery" style="swimlane;fontStyle=0;align=center;verticalAlign=top;childLayout=stackLayout;horizontal=1;startSize=26;horizontalStack=0;resizeParent=1;resizeParentMax=0;resizeLast=0;collapsible=1;marginBottom=0;" parent="WIyWlLk6GJQsqaUBKTNV-1" vertex="1"><mxGeometry x="240" y="730" width="200" height="190" as="geometry"/></mxCell><mxCell id="39" value="+ searchField: String { readOnly }" style="text;strokeColor=none;fillColor=none;align=left;verticalAlign=top;spacingLeft=4;spacingRight=4;overflow=hidden;rotatable=0;points=[[0,0.5],[1,0.5]];portConstraint=eastwest;" parent="38" vertex="1"><mxGeometry y="26" width="200" height="26" as="geometry"/></mxCell><mxCell id="40" value="+ condition: Condition { readOnly }" style="text;strokeColor=none;fillColor=none;align=left;verticalAlign=top;spacingLeft=4;spacingRight=4;overflow=hidden;rotatable=0;points=[[0,0.5],[1,0.5]];portConstraint=eastwest;" parent="38" vertex="1"><mxGeometry y="52" width="200" height="26" as="geometry"/></mxCell><mxCell id="43" value="+ searchValue: String { readOnly }" style="text;strokeColor=none;fillColor=none;align=left;verticalAlign=top;spacingLeft=4;spacingRight=4;overflow=hidden;rotatable=0;points=[[0,0.5],[1,0.5]];portConstraint=eastwest;" parent="38" vertex="1"><mxGeometry y="78" width="200" height="26" as="geometry"/></mxCell><mxCell id="41" value="" style="line;strokeWidth=1;fillColor=none;align=left;verticalAlign=middle;spacingTop=-1;spacingLeft=3;spacingRight=3;rotatable=0;labelPosition=right;points=[];portConstraint=eastwest;strokeColor=inherit;" parent="38" vertex="1"><mxGeometry y="104" width="200" height="8" as="geometry"/></mxCell><mxCell id="42" value="+ SearchQuery(&#10;        searchField: String,&#10;        condition: Condition,&#10;        searchValue: String&#10;    )" style="text;strokeColor=none;fillColor=none;align=left;verticalAlign=top;spacingLeft=4;spacingRight=4;overflow=hidden;rotatable=0;points=[[0,0.5],[1,0.5]];portConstraint=eastwest;" parent="38" vertex="1"><mxGeometry y="112" width="200" height="78" as="geometry"/></mxCell><mxCell id="44" value="1" style="endArrow=open;html=1;endSize=12;startArrow=diamondThin;startSize=14;startFill=1;edgeStyle=orthogonalEdgeStyle;align=left;verticalAlign=bottom;rounded=0;" parent="WIyWlLk6GJQsqaUBKTNV-1" source="38" target="10" edge="1"><mxGeometry x="-1" y="3" relative="1" as="geometry"><mxPoint x="590" y="590" as="sourcePoint"/><mxPoint x="750" y="590" as="targetPoint"/></mxGeometry></mxCell><mxCell id="45" value="Use" style="endArrow=open;endSize=12;dashed=1;html=1;rounded=0;" parent="WIyWlLk6GJQsqaUBKTNV-1" source="NYYMoiH2fDYC1uSWcf2y-141" target="38" edge="1"><mxGeometry width="160" relative="1" as="geometry"><mxPoint x="897.3170731707319" y="700" as="sourcePoint"/><mxPoint x="833.9024390243903" y="820" as="targetPoint"/></mxGeometry></mxCell><mxCell id="46" value="MainState" style="swimlane;fontStyle=0;align=center;verticalAlign=top;childLayout=stackLayout;horizontal=1;startSize=26;horizontalStack=0;resizeParent=1;resizeParentMax=0;resizeLast=0;collapsible=1;marginBottom=0;fontColor=default;" parent="WIyWlLk6GJQsqaUBKTNV-1" vertex="1"><mxGeometry x="1500" y="2090" width="320" height="112" as="geometry"/></mxCell><mxCell id="47" value="+ marchAll: Boolean" style="text;strokeColor=none;fillColor=none;align=left;verticalAlign=top;spacingLeft=4;spacingRight=4;overflow=hidden;rotatable=0;points=[[0,0.5],[1,0.5]];portConstraint=eastwest;fontColor=default;" parent="46" vertex="1"><mxGeometry y="26" width="320" height="26" as="geometry"/></mxCell><mxCell id="50" value="+ seachQueries: SearchQuery [1..n]" style="text;strokeColor=none;fillColor=none;align=left;verticalAlign=top;spacingLeft=4;spacingRight=4;overflow=hidden;rotatable=0;points=[[0,0.5],[1,0.5]];portConstraint=eastwest;fontColor=default;" parent="46" vertex="1"><mxGeometry y="52" width="320" height="26" as="geometry"/></mxCell><mxCell id="48" value="" style="line;strokeWidth=1;fillColor=none;align=left;verticalAlign=middle;spacingTop=-1;spacingLeft=3;spacingRight=3;rotatable=0;labelPosition=right;points=[];portConstraint=eastwest;strokeColor=inherit;fontColor=default;" parent="46" vertex="1"><mxGeometry y="78" width="320" height="8" as="geometry"/></mxCell><mxCell id="49" value="+ MainState()" style="text;strokeColor=none;fillColor=none;align=left;verticalAlign=top;spacingLeft=4;spacingRight=4;overflow=hidden;rotatable=0;points=[[0,0.5],[1,0.5]];portConstraint=eastwest;fontColor=default;" parent="46" vertex="1"><mxGeometry y="86" width="320" height="26" as="geometry"/></mxCell><mxCell id="53" value="" style="endArrow=none;html=1;edgeStyle=orthogonalEdgeStyle;rounded=0;startArrow=none;" parent="WIyWlLk6GJQsqaUBKTNV-1" source="46" target="42" edge="1"><mxGeometry relative="1" as="geometry"><mxPoint x="1820" y="2146" as="sourcePoint"/><mxPoint x="329" y="756" as="targetPoint"/><Array as="points"><mxPoint x="1940" y="2146"/><mxPoint x="1940" y="960"/><mxPoint x="370" y="960"/></Array></mxGeometry></mxCell><mxCell id="55" value="&lt;&lt;sealed interface&gt;&gt;&#10;AdvancedSeachEvent    " style="swimlane;fontStyle=0;align=center;verticalAlign=top;childLayout=stackLayout;horizontal=1;startSize=40;horizontalStack=0;resizeParent=1;resizeParentMax=0;resizeLast=0;collapsible=1;marginBottom=0;fontColor=default;" parent="WIyWlLk6GJQsqaUBKTNV-1" vertex="1"><mxGeometry x="1230" y="2090" width="220" height="48" as="geometry"/></mxCell><mxCell id="56" value="" style="line;strokeWidth=1;fillColor=none;align=left;verticalAlign=middle;spacingTop=-1;spacingLeft=3;spacingRight=3;rotatable=0;labelPosition=right;points=[];portConstraint=eastwest;strokeColor=inherit;fontColor=default;" parent="55" vertex="1"><mxGeometry y="40" width="220" height="8" as="geometry"/></mxCell><mxCell id="57" value="AddQuery" style="swimlane;fontStyle=0;align=center;verticalAlign=top;childLayout=stackLayout;horizontal=1;startSize=26;horizontalStack=0;resizeParent=1;resizeParentMax=0;resizeLast=0;collapsible=1;marginBottom=0;fontColor=default;" parent="WIyWlLk6GJQsqaUBKTNV-1" vertex="1"><mxGeometry x="1100" y="1990" width="110" height="60" as="geometry"/></mxCell><mxCell id="60" value="" style="line;strokeWidth=1;fillColor=none;align=left;verticalAlign=middle;spacingTop=-1;spacingLeft=3;spacingRight=3;rotatable=0;labelPosition=right;points=[];portConstraint=eastwest;strokeColor=inherit;fontColor=default;" parent="57" vertex="1"><mxGeometry y="26" width="110" height="8" as="geometry"/></mxCell><mxCell id="61" value="+ AddQuery()" style="text;strokeColor=none;fillColor=none;align=left;verticalAlign=top;spacingLeft=4;spacingRight=4;overflow=hidden;rotatable=0;points=[[0,0.5],[1,0.5]];portConstraint=eastwest;fontColor=default;" parent="57" vertex="1"><mxGeometry y="34" width="110" height="26" as="geometry"/></mxCell><mxCell id="62" value="" style="endArrow=block;dashed=1;endFill=0;endSize=12;html=1;rounded=0;" parent="WIyWlLk6GJQsqaUBKTNV-1" source="57" target="55" edge="1"><mxGeometry width="160" relative="1" as="geometry"><mxPoint x="1025" y="2020" as="sourcePoint"/><mxPoint x="1091.6666666666667" y="2070" as="targetPoint"/></mxGeometry></mxCell><mxCell id="63" value="MatchAllChangeSearchEvent" style="swimlane;fontStyle=0;align=center;verticalAlign=top;childLayout=stackLayout;horizontal=1;startSize=26;horizontalStack=0;resizeParent=1;resizeParentMax=0;resizeLast=0;collapsible=1;marginBottom=0;fontColor=default;" parent="WIyWlLk6GJQsqaUBKTNV-1" vertex="1"><mxGeometry x="850" y="1990" width="220" height="124" as="geometry"/></mxCell><mxCell id="64" value="+ marchAll: Boolean { readOnly }" style="text;strokeColor=none;fillColor=none;align=left;verticalAlign=top;spacingLeft=4;spacingRight=4;overflow=hidden;rotatable=0;points=[[0,0.5],[1,0.5]];portConstraint=eastwest;fontColor=default;" parent="63" vertex="1"><mxGeometry y="26" width="220" height="26" as="geometry"/></mxCell><mxCell id="65" value="" style="line;strokeWidth=1;fillColor=none;align=left;verticalAlign=middle;spacingTop=-1;spacingLeft=3;spacingRight=3;rotatable=0;labelPosition=right;points=[];portConstraint=eastwest;strokeColor=inherit;fontColor=default;" parent="63" vertex="1"><mxGeometry y="52" width="220" height="8" as="geometry"/></mxCell><mxCell id="66" value="+ MatchAllChangeSearchEvent(&#10;        matchAll: Boolean&#10;    )" style="text;strokeColor=none;fillColor=none;align=left;verticalAlign=top;spacingLeft=4;spacingRight=4;overflow=hidden;rotatable=0;points=[[0,0.5],[1,0.5]];portConstraint=eastwest;fontColor=default;" parent="63" vertex="1"><mxGeometry y="60" width="220" height="64" as="geometry"/></mxCell><mxCell id="68" value="QueryConditionChangeSearchEvent" style="swimlane;fontStyle=0;align=center;verticalAlign=top;childLayout=stackLayout;horizontal=1;startSize=26;horizontalStack=0;resizeParent=1;resizeParentMax=0;resizeLast=0;collapsible=1;marginBottom=0;fontColor=default;" parent="WIyWlLk6GJQsqaUBKTNV-1" vertex="1"><mxGeometry x="880" y="2170" width="240" height="150" as="geometry"/></mxCell><mxCell id="69" value="+ queryId: UInt { readOnly }" style="text;strokeColor=none;fillColor=none;align=left;verticalAlign=top;spacingLeft=4;spacingRight=4;overflow=hidden;rotatable=0;points=[[0,0.5],[1,0.5]];portConstraint=eastwest;fontColor=default;" parent="68" vertex="1"><mxGeometry y="26" width="240" height="26" as="geometry"/></mxCell><mxCell id="72" value="+ queryCondition: Condition { readOnly }" style="text;strokeColor=none;fillColor=none;align=left;verticalAlign=top;spacingLeft=4;spacingRight=4;overflow=hidden;rotatable=0;points=[[0,0.5],[1,0.5]];portConstraint=eastwest;fontColor=default;" parent="68" vertex="1"><mxGeometry y="52" width="240" height="26" as="geometry"/></mxCell><mxCell id="70" value="" style="line;strokeWidth=1;fillColor=none;align=left;verticalAlign=middle;spacingTop=-1;spacingLeft=3;spacingRight=3;rotatable=0;labelPosition=right;points=[];portConstraint=eastwest;strokeColor=inherit;fontColor=default;" parent="68" vertex="1"><mxGeometry y="78" width="240" height="8" as="geometry"/></mxCell><mxCell id="71" value="+ QueryConditionChangeSearchEvent(&#10;        queryId: UInt,&#10;        queryCondition: Condition&#10;    )" style="text;strokeColor=none;fillColor=none;align=left;verticalAlign=top;spacingLeft=4;spacingRight=4;overflow=hidden;rotatable=0;points=[[0,0.5],[1,0.5]];portConstraint=eastwest;fontColor=default;" parent="68" vertex="1"><mxGeometry y="86" width="240" height="64" as="geometry"/></mxCell><mxCell id="73" value="1" style="endArrow=open;html=1;endSize=12;startArrow=diamondThin;startSize=14;startFill=1;edgeStyle=orthogonalEdgeStyle;align=left;verticalAlign=bottom;rounded=0;" parent="WIyWlLk6GJQsqaUBKTNV-1" source="68" target="38" edge="1"><mxGeometry x="-0.9903" y="-15" relative="1" as="geometry"><mxPoint x="270" y="850" as="sourcePoint"/><mxPoint x="173" y="675" as="targetPoint"/><Array as="points"><mxPoint x="290" y="2245"/></Array><mxPoint as="offset"/></mxGeometry></mxCell><mxCell id="74" value="" style="endArrow=block;dashed=1;endFill=0;endSize=12;html=1;rounded=0;" parent="WIyWlLk6GJQsqaUBKTNV-1" source="63" target="55" edge="1"><mxGeometry width="160" relative="1" as="geometry"><mxPoint x="1377.5" y="2190" as="sourcePoint"/><mxPoint x="1360" y="2148" as="targetPoint"/></mxGeometry></mxCell><mxCell id="75" value="" style="endArrow=block;dashed=1;endFill=0;endSize=12;html=1;rounded=0;" parent="WIyWlLk6GJQsqaUBKTNV-1" source="68" target="55" edge="1"><mxGeometry width="160" relative="1" as="geometry"><mxPoint x="1080" y="2079.947368421053" as="sourcePoint"/><mxPoint x="1240" y="2106.0526315789475" as="targetPoint"/></mxGeometry></mxCell><mxCell id="76" value="QuerySearchFieldChangeSearchEvent" style="swimlane;fontStyle=0;align=center;verticalAlign=top;childLayout=stackLayout;horizontal=1;startSize=26;horizontalStack=0;resizeParent=1;resizeParentMax=0;resizeLast=0;collapsible=1;marginBottom=0;fontColor=default;" parent="WIyWlLk6GJQsqaUBKTNV-1" vertex="1"><mxGeometry x="1000" y="2340" width="240" height="150" as="geometry"/></mxCell><mxCell id="77" value="+ queryId: UInt { readOnly }" style="text;strokeColor=none;fillColor=none;align=left;verticalAlign=top;spacingLeft=4;spacingRight=4;overflow=hidden;rotatable=0;points=[[0,0.5],[1,0.5]];portConstraint=eastwest;fontColor=default;" parent="76" vertex="1"><mxGeometry y="26" width="240" height="26" as="geometry"/></mxCell><mxCell id="78" value="+ searchField: String { readOnly }" style="text;strokeColor=none;fillColor=none;align=left;verticalAlign=top;spacingLeft=4;spacingRight=4;overflow=hidden;rotatable=0;points=[[0,0.5],[1,0.5]];portConstraint=eastwest;fontColor=default;" parent="76" vertex="1"><mxGeometry y="52" width="240" height="26" as="geometry"/></mxCell><mxCell id="79" value="" style="line;strokeWidth=1;fillColor=none;align=left;verticalAlign=middle;spacingTop=-1;spacingLeft=3;spacingRight=3;rotatable=0;labelPosition=right;points=[];portConstraint=eastwest;strokeColor=inherit;fontColor=default;" parent="76" vertex="1"><mxGeometry y="78" width="240" height="8" as="geometry"/></mxCell><mxCell id="80" value="+ QuerySearchFieldChangeSearchEvent(&#10;        queryId: UInt,&#10;        searchField: String&#10;    )" style="text;strokeColor=none;fillColor=none;align=left;verticalAlign=top;spacingLeft=4;spacingRight=4;overflow=hidden;rotatable=0;points=[[0,0.5],[1,0.5]];portConstraint=eastwest;fontColor=default;" parent="76" vertex="1"><mxGeometry y="86" width="240" height="64" as="geometry"/></mxCell><mxCell id="81" value="" style="endArrow=block;dashed=1;endFill=0;endSize=12;html=1;rounded=0;" parent="WIyWlLk6GJQsqaUBKTNV-1" source="76" target="55" edge="1"><mxGeometry width="160" relative="1" as="geometry"><mxPoint x="1129.9999999999995" y="2208.764705882353" as="sourcePoint"/><mxPoint x="1287.7099236641225" y="2148" as="targetPoint"/></mxGeometry></mxCell><mxCell id="82" value="QuerySearchValueChangeSearchEvent" style="swimlane;fontStyle=0;align=center;verticalAlign=top;childLayout=stackLayout;horizontal=1;startSize=26;horizontalStack=0;resizeParent=1;resizeParentMax=0;resizeLast=0;collapsible=1;marginBottom=0;fontColor=default;" parent="WIyWlLk6GJQsqaUBKTNV-1" vertex="1"><mxGeometry x="1330" y="2310" width="240" height="150" as="geometry"/></mxCell><mxCell id="83" value="+ queryId: UInt { readOnly }" style="text;strokeColor=none;fillColor=none;align=left;verticalAlign=top;spacingLeft=4;spacingRight=4;overflow=hidden;rotatable=0;points=[[0,0.5],[1,0.5]];portConstraint=eastwest;fontColor=default;" parent="82" vertex="1"><mxGeometry y="26" width="240" height="26" as="geometry"/></mxCell><mxCell id="84" value="+ searchValue: String { readOnly }" style="text;strokeColor=none;fillColor=none;align=left;verticalAlign=top;spacingLeft=4;spacingRight=4;overflow=hidden;rotatable=0;points=[[0,0.5],[1,0.5]];portConstraint=eastwest;fontColor=default;" parent="82" vertex="1"><mxGeometry y="52" width="240" height="26" as="geometry"/></mxCell><mxCell id="85" value="" style="line;strokeWidth=1;fillColor=none;align=left;verticalAlign=middle;spacingTop=-1;spacingLeft=3;spacingRight=3;rotatable=0;labelPosition=right;points=[];portConstraint=eastwest;strokeColor=inherit;fontColor=default;" parent="82" vertex="1"><mxGeometry y="78" width="240" height="8" as="geometry"/></mxCell><mxCell id="86" value="+ QuerySearchValueChangeSearchEvent(&#10;        queryId: UInt,&#10;        searchValue: String&#10;    )" style="text;strokeColor=none;fillColor=none;align=left;verticalAlign=top;spacingLeft=4;spacingRight=4;overflow=hidden;rotatable=0;points=[[0,0.5],[1,0.5]];portConstraint=eastwest;fontColor=default;" parent="82" vertex="1"><mxGeometry y="86" width="240" height="64" as="geometry"/></mxCell><mxCell id="87" value="" style="endArrow=block;dashed=1;endFill=0;endSize=12;html=1;rounded=0;" parent="WIyWlLk6GJQsqaUBKTNV-1" source="82" target="55" edge="1"><mxGeometry width="160" relative="1" as="geometry"><mxPoint x="1184.8172757475086" y="2350" as="sourcePoint"/><mxPoint x="1332.4584717607977" y="2148" as="targetPoint"/></mxGeometry></mxCell><mxCell id="89" value="Use" style="endArrow=open;endSize=12;dashed=1;html=1;rounded=0;" parent="WIyWlLk6GJQsqaUBKTNV-1" source="55" target="28" edge="1"><mxGeometry width="160" relative="1" as="geometry"><mxPoint x="951.4196242171188" y="1280" as="sourcePoint"/><mxPoint x="1307.4947807933195" y="952" as="targetPoint"/></mxGeometry></mxCell><mxCell id="90" value="1" style="endArrow=open;html=1;endSize=12;startArrow=diamondThin;startSize=14;startFill=0;edgeStyle=orthogonalEdgeStyle;align=left;verticalAlign=bottom;rounded=0;" parent="WIyWlLk6GJQsqaUBKTNV-1" source="28" target="NYYMoiH2fDYC1uSWcf2y-141" edge="1"><mxGeometry x="-1" y="3" relative="1" as="geometry"><mxPoint x="1910" y="1693.0666666666666" as="sourcePoint"/><mxPoint x="720" y="938" as="targetPoint"/><Array as="points"><mxPoint x="1960" y="1960"/><mxPoint x="1960" y="1030"/><mxPoint x="820" y="1030"/></Array></mxGeometry></mxCell><mxCell id="91" value="&lt;&lt;data class&gt;&gt;&#10;LoginDTO" style="swimlane;fontStyle=0;align=center;verticalAlign=top;childLayout=stackLayout;horizontal=1;startSize=38;horizontalStack=0;resizeParent=1;resizeLast=0;collapsible=1;marginBottom=0;rounded=0;shadow=0;strokeWidth=1;" vertex="1" parent="WIyWlLk6GJQsqaUBKTNV-1"><mxGeometry x="250" y="542" width="200" height="172" as="geometry"><mxRectangle x="230" y="140" width="160" height="26" as="alternateBounds"/></mxGeometry></mxCell><mxCell id="94" value="+ emaiOrUsernamel: String { readOnly }" style="text;align=left;verticalAlign=top;spacingLeft=4;spacingRight=4;overflow=hidden;rotatable=0;points=[[0,0.5],[1,0.5]];portConstraint=eastwest;rounded=0;shadow=0;html=0;" vertex="1" parent="91"><mxGeometry y="38" width="200" height="26" as="geometry"/></mxCell><mxCell id="96" value="+ password: String { readOnly }" style="text;align=left;verticalAlign=top;spacingLeft=4;spacingRight=4;overflow=hidden;rotatable=0;points=[[0,0.5],[1,0.5]];portConstraint=eastwest;rounded=0;shadow=0;html=0;" vertex="1" parent="91"><mxGeometry y="64" width="200" height="26" as="geometry"/></mxCell><mxCell id="97" value="" style="line;html=1;strokeWidth=1;align=left;verticalAlign=middle;spacingTop=-1;spacingLeft=3;spacingRight=3;rotatable=0;labelPosition=right;points=[];portConstraint=eastwest;" vertex="1" parent="91"><mxGeometry y="90" width="200" height="8" as="geometry"/></mxCell><mxCell id="98" value="+ LoginDTO(&#10;        emailOrUsername: String,&#10;        password: String&#10;    )" style="text;align=left;verticalAlign=top;spacingLeft=4;spacingRight=4;overflow=hidden;rotatable=0;points=[[0,0.5],[1,0.5]];portConstraint=eastwest;rounded=0;shadow=0;html=0;" vertex="1" parent="91"><mxGeometry y="98" width="200" height="74" as="geometry"/></mxCell><mxCell id="99" value="Use" style="endArrow=open;endSize=12;dashed=1;html=1;rounded=0;" edge="1" parent="WIyWlLk6GJQsqaUBKTNV-1" source="91" target="NYYMoiH2fDYC1uSWcf2y-2"><mxGeometry width="160" relative="1" as="geometry"><mxPoint x="250" y="386.66666666666663" as="sourcePoint"/><mxPoint x="330" y="380" as="targetPoint"/></mxGeometry></mxCell><mxCell id="106" value="&lt;&lt;data class&gt;&gt;&#10;RegisterDTO" style="swimlane;fontStyle=0;align=center;verticalAlign=top;childLayout=stackLayout;horizontal=1;startSize=40;horizontalStack=0;resizeParent=1;resizeLast=0;collapsible=1;marginBottom=0;rounded=0;shadow=0;strokeWidth=1;" vertex="1" parent="WIyWlLk6GJQsqaUBKTNV-1"><mxGeometry x="40" y="230" width="200" height="284" as="geometry"><mxRectangle x="230" y="140" width="160" height="26" as="alternateBounds"/></mxGeometry></mxCell><mxCell id="107" value="+ firstName: String { readOnly }" style="text;align=left;verticalAlign=top;spacingLeft=4;spacingRight=4;overflow=hidden;rotatable=0;points=[[0,0.5],[1,0.5]];portConstraint=eastwest;" vertex="1" parent="106"><mxGeometry y="40" width="200" height="26" as="geometry"/></mxCell><mxCell id="108" value="+ lastName: String { readOnly }" style="text;align=left;verticalAlign=top;spacingLeft=4;spacingRight=4;overflow=hidden;rotatable=0;points=[[0,0.5],[1,0.5]];portConstraint=eastwest;rounded=0;shadow=0;html=0;" vertex="1" parent="106"><mxGeometry y="66" width="200" height="26" as="geometry"/></mxCell><mxCell id="109" value="+ email: String { readOnly }" style="text;align=left;verticalAlign=top;spacingLeft=4;spacingRight=4;overflow=hidden;rotatable=0;points=[[0,0.5],[1,0.5]];portConstraint=eastwest;rounded=0;shadow=0;html=0;" vertex="1" parent="106"><mxGeometry y="92" width="200" height="26" as="geometry"/></mxCell><mxCell id="110" value="+ username: String { readOnly }" style="text;align=left;verticalAlign=top;spacingLeft=4;spacingRight=4;overflow=hidden;rotatable=0;points=[[0,0.5],[1,0.5]];portConstraint=eastwest;rounded=0;shadow=0;html=0;" vertex="1" parent="106"><mxGeometry y="118" width="200" height="26" as="geometry"/></mxCell><mxCell id="111" value="+ password: String { readOnly }" style="text;align=left;verticalAlign=top;spacingLeft=4;spacingRight=4;overflow=hidden;rotatable=0;points=[[0,0.5],[1,0.5]];portConstraint=eastwest;rounded=0;shadow=0;html=0;" vertex="1" parent="106"><mxGeometry y="144" width="200" height="26" as="geometry"/></mxCell><mxCell id="112" value="" style="line;html=1;strokeWidth=1;align=left;verticalAlign=middle;spacingTop=-1;spacingLeft=3;spacingRight=3;rotatable=0;labelPosition=right;points=[];portConstraint=eastwest;" vertex="1" parent="106"><mxGeometry y="170" width="200" height="8" as="geometry"/></mxCell><mxCell id="113" value="+ RegisterDTO(&#10;        firstName: String, &#10;        lastName: String,&#10;        email: String,&#10;        username: String,&#10;        password: String&#10;    )" style="text;align=left;verticalAlign=top;spacingLeft=4;spacingRight=4;overflow=hidden;rotatable=0;points=[[0,0.5],[1,0.5]];portConstraint=eastwest;rounded=0;shadow=0;html=0;" vertex="1" parent="106"><mxGeometry y="178" width="200" height="106" as="geometry"/></mxCell><mxCell id="114" value="Use" style="endArrow=open;endSize=12;dashed=1;html=1;rounded=0;" edge="1" parent="WIyWlLk6GJQsqaUBKTNV-1" source="106" target="NYYMoiH2fDYC1uSWcf2y-2"><mxGeometry width="160" relative="1" as="geometry"><mxPoint x="404.94382022471905" y="552" as="sourcePoint"/><mxPoint x="451.01123595505624" y="470" as="targetPoint"/></mxGeometry></mxCell><mxCell id="115" value="" style="endArrow=block;dashed=1;endFill=0;endSize=12;html=1;rounded=0;" edge="1" parent="WIyWlLk6GJQsqaUBKTNV-1" source="NYYMoiH2fDYC1uSWcf2y-370" target="NYYMoiH2fDYC1uSWcf2y-366"><mxGeometry width="160" relative="1" as="geometry"><mxPoint x="330" y="206.47058823529414" as="sourcePoint"/><mxPoint x="404.28571428571445" y="260" as="targetPoint"/></mxGeometry></mxCell><mxCell id="116" value="" style="endArrow=block;dashed=1;endFill=0;endSize=12;html=1;rounded=0;" edge="1" parent="WIyWlLk6GJQsqaUBKTNV-1" source="NYYMoiH2fDYC1uSWcf2y-387" target="NYYMoiH2fDYC1uSWcf2y-366"><mxGeometry width="160" relative="1" as="geometry"><mxPoint x="1005.4545454545455" y="149.9999999999999" as="sourcePoint"/><mxPoint x="882.7272727272725" y="240" as="targetPoint"/></mxGeometry></mxCell><mxCell id="117" value="" style="endArrow=block;dashed=1;endFill=0;endSize=12;html=1;rounded=0;" edge="1" parent="WIyWlLk6GJQsqaUBKTNV-1" source="NYYMoiH2fDYC1uSWcf2y-375" target="NYYMoiH2fDYC1uSWcf2y-366"><mxGeometry width="160" relative="1" as="geometry"><mxPoint x="1035" y="258.208695652174" as="sourcePoint"/><mxPoint x="930" y="261.4956521739131" as="targetPoint"/></mxGeometry></mxCell><mxCell id="118" value="" style="endArrow=block;dashed=1;endFill=0;endSize=12;html=1;rounded=0;" edge="1" parent="WIyWlLk6GJQsqaUBKTNV-1" source="NYYMoiH2fDYC1uSWcf2y-383"><mxGeometry width="160" relative="1" as="geometry"><mxPoint x="1260" y="127.20379146919436" as="sourcePoint"/><mxPoint x="920" y="254" as="targetPoint"/></mxGeometry></mxCell><mxCell id="119" value="" style="endArrow=block;dashed=1;endFill=0;endSize=12;html=1;rounded=0;" edge="1" parent="WIyWlLk6GJQsqaUBKTNV-1" source="NYYMoiH2fDYC1uSWcf2y-379" target="NYYMoiH2fDYC1uSWcf2y-366"><mxGeometry width="160" relative="1" as="geometry"><mxPoint x="1450" y="240.9395017793595" as="sourcePoint"/><mxPoint x="930" y="260.9252669039146" as="targetPoint"/></mxGeometry></mxCell><mxCell id="120" value="" style="endArrow=block;dashed=1;endFill=0;endSize=12;html=1;rounded=0;entryX=1;entryY=0.75;entryDx=0;entryDy=0;" edge="1" parent="WIyWlLk6GJQsqaUBKTNV-1" source="NYYMoiH2fDYC1uSWcf2y-395" target="NYYMoiH2fDYC1uSWcf2y-366"><mxGeometry width="160" relative="1" as="geometry"><mxPoint x="1587.5" y="95.42857142857156" as="sourcePoint"/><mxPoint x="930" y="245.71428571428578" as="targetPoint"/></mxGeometry></mxCell><mxCell id="121" value="Use" style="endArrow=open;endSize=12;dashed=1;html=1;rounded=0;" edge="1" parent="WIyWlLk6GJQsqaUBKTNV-1" source="NYYMoiH2fDYC1uSWcf2y-239" target="NYYMoiH2fDYC1uSWcf2y-220"><mxGeometry width="160" relative="1" as="geometry"><mxPoint x="885.614973262032" y="700" as="sourcePoint"/><mxPoint x="810.4278074866309" y="774" as="targetPoint"/><Array as="points"><mxPoint x="1300" y="330"/></Array></mxGeometry></mxCell><mxCell id="122" value="Use" style="endArrow=open;endSize=12;dashed=1;html=1;rounded=0;" edge="1" parent="WIyWlLk6GJQsqaUBKTNV-1" source="NYYMoiH2fDYC1uSWcf2y-297" target="NYYMoiH2fDYC1uSWcf2y-264"><mxGeometry width="160" relative="1" as="geometry"><mxPoint x="955.3340292275573" y="1280" as="sourcePoint"/><mxPoint x="1328.528183716075" y="952" as="targetPoint"/></mxGeometry></mxCell><mxCell id="145" value="1" style="endArrow=open;html=1;endSize=12;startArrow=diamondThin;startSize=14;startFill=1;edgeStyle=orthogonalEdgeStyle;align=left;verticalAlign=bottom;rounded=0;" edge="1" parent="WIyWlLk6GJQsqaUBKTNV-1" source="NYYMoiH2fDYC1uSWcf2y-96" target="NYYMoiH2fDYC1uSWcf2y-50"><mxGeometry x="-0.7468" y="-10" relative="1" as="geometry"><mxPoint x="135" y="1586" as="sourcePoint"/><mxPoint x="135" y="1521" as="targetPoint"/><mxPoint as="offset"/><Array as="points"><mxPoint x="180" y="1125"/><mxPoint x="285" y="1125"/><mxPoint x="285" y="1500"/></Array></mxGeometry></mxCell><mxCell id="148" value="1" style="endArrow=open;html=1;endSize=12;startArrow=diamondThin;startSize=14;startFill=1;edgeStyle=orthogonalEdgeStyle;align=left;verticalAlign=bottom;rounded=0;" edge="1" parent="WIyWlLk6GJQsqaUBKTNV-1" source="NYYMoiH2fDYC1uSWcf2y-105" target="NYYMoiH2fDYC1uSWcf2y-96"><mxGeometry x="-0.7468" y="-10" relative="1" as="geometry"><mxPoint x="135" y="1586" as="sourcePoint"/><mxPoint x="135" y="1521" as="targetPoint"/><mxPoint as="offset"/><Array as="points"><mxPoint x="135" y="1090"/></Array></mxGeometry></mxCell><mxCell id="151" value="1" style="endArrow=open;html=1;endSize=12;startArrow=diamondThin;startSize=14;startFill=1;edgeStyle=orthogonalEdgeStyle;align=left;verticalAlign=bottom;rounded=0;" edge="1" parent="WIyWlLk6GJQsqaUBKTNV-1" source="NYYMoiH2fDYC1uSWcf2y-123" target="NYYMoiH2fDYC1uSWcf2y-96"><mxGeometry x="-0.7468" y="-10" relative="1" as="geometry"><mxPoint x="344" y="1100" as="sourcePoint"/><mxPoint x="145" y="1172" as="targetPoint"/><mxPoint as="offset"/><Array as="points"><mxPoint x="100" y="1090"/><mxPoint x="100" y="1090"/></Array></mxGeometry></mxCell><mxCell id="152" value="1" style="endArrow=open;html=1;endSize=12;startArrow=diamondThin;startSize=14;startFill=1;edgeStyle=orthogonalEdgeStyle;align=left;verticalAlign=bottom;rounded=0;" edge="1" parent="WIyWlLk6GJQsqaUBKTNV-1" source="NYYMoiH2fDYC1uSWcf2y-128" target="NYYMoiH2fDYC1uSWcf2y-50"><mxGeometry x="-0.7468" y="-10" relative="1" as="geometry"><mxPoint x="135" y="1871" as="sourcePoint"/><mxPoint x="135" y="1782" as="targetPoint"/><mxPoint as="offset"/></mxGeometry></mxCell><mxCell id="153" value="&lt;&lt;interface&gt;&gt;&#10;Item" style="swimlane;fontStyle=0;align=center;verticalAlign=top;childLayout=stackLayout;horizontal=1;startSize=34;horizontalStack=0;resizeParent=1;resizeParentMax=0;resizeLast=0;collapsible=1;marginBottom=0;" vertex="1" parent="WIyWlLk6GJQsqaUBKTNV-1"><mxGeometry x="600" y="1318" width="100" height="42" as="geometry"/></mxCell><mxCell id="155" value="" style="line;strokeWidth=1;fillColor=none;align=left;verticalAlign=middle;spacingTop=-1;spacingLeft=3;spacingRight=3;rotatable=0;labelPosition=right;points=[];portConstraint=eastwest;strokeColor=inherit;" vertex="1" parent="153"><mxGeometry y="34" width="100" height="8" as="geometry"/></mxCell><mxCell id="157" value="" style="endArrow=block;dashed=1;endFill=0;endSize=12;html=1;rounded=0;" edge="1" parent="WIyWlLk6GJQsqaUBKTNV-1" source="NYYMoiH2fDYC1uSWcf2y-105" target="153"><mxGeometry width="160" relative="1" as="geometry"><mxPoint x="825.9197324414715" y="1082" as="sourcePoint"/><mxPoint x="786.7892976588628" y="952" as="targetPoint"/></mxGeometry></mxCell><mxCell id="158" value="" style="endArrow=block;dashed=1;endFill=0;endSize=12;html=1;rounded=0;" edge="1" parent="WIyWlLk6GJQsqaUBKTNV-1" source="NYYMoiH2fDYC1uSWcf2y-123" target="153"><mxGeometry width="160" relative="1" as="geometry"><mxPoint x="566.1023622047244" y="1190" as="sourcePoint"/><mxPoint x="647.5984251968505" y="1328" as="targetPoint"/><Array as="points"><mxPoint x="320" y="1190"/><mxPoint x="610" y="1200"/></Array></mxGeometry></mxCell><mxCell id="159" value="" style="endArrow=block;dashed=1;endFill=0;endSize=12;html=1;rounded=0;" edge="1" parent="WIyWlLk6GJQsqaUBKTNV-1" source="NYYMoiH2fDYC1uSWcf2y-128" target="153"><mxGeometry width="160" relative="1" as="geometry"><mxPoint x="566.1023622047244" y="1190" as="sourcePoint"/><mxPoint x="647.5984251968505" y="1328" as="targetPoint"/><Array as="points"><mxPoint x="640" y="2140"/></Array></mxGeometry></mxCell><mxCell id="160" value="Use" style="endArrow=open;endSize=12;dashed=1;html=1;rounded=0;" edge="1" parent="WIyWlLk6GJQsqaUBKTNV-1" source="NYYMoiH2fDYC1uSWcf2y-366" target="NYYMoiH2fDYC1uSWcf2y-342"><mxGeometry width="160" relative="1" as="geometry"><mxPoint x="404.75836431226776" y="552" as="sourcePoint"/><mxPoint x="445.35315985130137" y="474" as="targetPoint"/></mxGeometry></mxCell><mxCell id="161" value="" style="endArrow=block;dashed=1;endFill=0;endSize=12;html=1;rounded=0;" edge="1" parent="WIyWlLk6GJQsqaUBKTNV-1" source="NYYMoiH2fDYC1uSWcf2y-299" target="NYYMoiH2fDYC1uSWcf2y-297"><mxGeometry width="160" relative="1" as="geometry"><mxPoint x="1220" y="1751.9459459459454" as="sourcePoint"/><mxPoint x="1302.765957446808" y="1794" as="targetPoint"/></mxGeometry></mxCell><mxCell id="162" value="" style="endArrow=block;dashed=1;endFill=0;endSize=12;html=1;rounded=0;" edge="1" parent="WIyWlLk6GJQsqaUBKTNV-1" source="NYYMoiH2fDYC1uSWcf2y-304" target="NYYMoiH2fDYC1uSWcf2y-297"><mxGeometry width="160" relative="1" as="geometry"><mxPoint x="949" y="1490.9855072463765" as="sourcePoint"/><mxPoint x="1035" y="1494.101449275362" as="targetPoint"/></mxGeometry></mxCell><mxCell id="163" value="" style="endArrow=block;dashed=1;endFill=0;endSize=12;html=1;rounded=0;" edge="1" parent="WIyWlLk6GJQsqaUBKTNV-1" source="NYYMoiH2fDYC1uSWcf2y-310" target="NYYMoiH2fDYC1uSWcf2y-297"><mxGeometry width="160" relative="1" as="geometry"><mxPoint x="949" y="1552.3333333333335" as="sourcePoint"/><mxPoint x="1042.9999999999998" y="1521" as="targetPoint"/></mxGeometry></mxCell><mxCell id="164" value="" style="endArrow=block;dashed=1;endFill=0;endSize=12;html=1;rounded=0;" edge="1" parent="WIyWlLk6GJQsqaUBKTNV-1" source="NYYMoiH2fDYC1uSWcf2y-316" target="NYYMoiH2fDYC1uSWcf2y-297"><mxGeometry width="160" relative="1" as="geometry"><mxPoint x="919" y="1655.2817869415808" as="sourcePoint"/><mxPoint x="1085.2808510638297" y="1521" as="targetPoint"/></mxGeometry></mxCell><mxCell id="165" value="" style="endArrow=block;dashed=1;endFill=0;endSize=12;html=1;rounded=0;" edge="1" parent="WIyWlLk6GJQsqaUBKTNV-1" source="5" target="NYYMoiH2fDYC1uSWcf2y-297"><mxGeometry width="160" relative="1" as="geometry"><mxPoint x="880.090909090909" y="1820" as="sourcePoint"/><mxPoint x="1097.5454545454545" y="1521" as="targetPoint"/></mxGeometry></mxCell><mxCell id="166" value="" style="endArrow=block;dashed=1;endFill=0;endSize=12;html=1;rounded=0;" edge="1" parent="WIyWlLk6GJQsqaUBKTNV-1" source="NYYMoiH2fDYC1uSWcf2y-335" target="NYYMoiH2fDYC1uSWcf2y-297"><mxGeometry width="160" relative="1" as="geometry"><mxPoint x="1119.1198979591836" y="1820" as="sourcePoint"/><mxPoint x="1115.3061224489793" y="1521" as="targetPoint"/></mxGeometry></mxCell><mxCell id="167" value="" style="endArrow=block;dashed=1;endFill=0;endSize=12;html=1;rounded=0;" edge="1" parent="WIyWlLk6GJQsqaUBKTNV-1" source="NYYMoiH2fDYC1uSWcf2y-322" target="NYYMoiH2fDYC1uSWcf2y-297"><mxGeometry width="160" relative="1" as="geometry"><mxPoint x="1313.8160919540228" y="1850" as="sourcePoint"/><mxPoint x="1128.5172413793102" y="1521" as="targetPoint"/></mxGeometry></mxCell><mxCell id="168" value="" style="endArrow=block;dashed=1;endFill=0;endSize=12;html=1;rounded=0;" edge="1" parent="WIyWlLk6GJQsqaUBKTNV-1" source="NYYMoiH2fDYC1uSWcf2y-328" target="NYYMoiH2fDYC1uSWcf2y-297"><mxGeometry width="160" relative="1" as="geometry"><mxPoint x="1321.9215686274506" y="1670" as="sourcePoint"/><mxPoint x="1143.705882352941" y="1521" as="targetPoint"/></mxGeometry></mxCell></root></mxGraphModel></diagram></mxfile>